<?xml version="1.0" encoding="utf-8"?>
<!-- Generator: Adobe Illustrator 24.1.2, SVG Export Plug-In . SVG Version: 6.00 Build 0)  -->
<svg version="1.1" id="レイヤー_1" xmlns="http://www.w3.org/2000/svg" xmlns:xlink="http://www.w3.org/1999/xlink" x="0px"
	 y="0px" viewBox="0 0 48 48" style="enable-background:new 0 0 48 48;" xml:space="preserve">
<style type="text/css">
	.st0{fill:#010101;}
	.st1{fill:#020202;}
	.st2{fill:#030303;}
	.st3{fill:#040404;}
	.st4{fill:#050505;}
	.st5{fill:#060606;}
	.st6{fill:#070707;}
	.st7{fill:#080808;}
	.st8{fill:#090909;}
	.st9{fill:#0A0A0A;}
	.st10{fill:#0B0B0B;}
	.st11{fill:#0C0C0C;}
	.st12{fill:#0D0D0D;}
	.st13{fill:#0E0E0E;}
	.st14{fill:#0F0F0F;}
	.st15{fill:#101010;}
	.st16{fill:#111111;}
	.st17{fill:#121212;}
	.st18{fill:#131313;}
	.st19{fill:#141414;}
	.st20{fill:#151515;}
	.st21{fill:#161616;}
	.st22{fill:#171717;}
	.st23{fill:#181818;}
	.st24{fill:#191919;}
	.st25{fill:#1A1A1A;}
	.st26{fill:#1B1B1B;}
	.st27{fill:#1C1C1C;}
	.st28{fill:#1D1D1D;}
	.st29{fill:#1E1E1E;}
	.st30{fill:#1F1F1F;}
	.st31{fill:#202020;}
	.st32{fill:#212121;}
	.st33{fill:#222222;}
	.st34{fill:#232323;}
	.st35{fill:#242424;}
	.st36{fill:#252525;}
	.st37{fill:#262626;}
	.st38{fill:#272727;}
	.st39{fill:#282828;}
	.st40{fill:#292929;}
	.st41{fill:#2A2A2A;}
	.st42{fill:#2B2B2B;}
	.st43{fill:#2C2C2C;}
	.st44{fill:#2D2D2D;}
	.st45{fill:#2E2E2E;}
	.st46{fill:#2F2F2F;}
	.st47{fill:#303030;}
	.st48{fill:#313131;}
	.st49{fill:#323232;}
	.st50{fill:#333333;}
	.st51{fill:#343434;}
	.st52{fill:#353535;}
	.st53{fill:#363636;}
	.st54{fill:#373737;}
	.st55{fill:#383838;}
	.st56{fill:#393939;}
	.st57{fill:#3A3A3A;}
	.st58{fill:#3B3B3B;}
	.st59{fill:#3C3C3C;}
	.st60{fill:#3D3D3D;}
	.st61{fill:#3E3E3E;}
	.st62{fill:#3F3F3F;}
	.st63{fill:#404040;}
	.st64{fill:#414141;}
	.st65{fill:#424242;}
	.st66{fill:#434343;}
	.st67{fill:#444444;}
	.st68{fill:#454545;}
	.st69{fill:#464646;}
	.st70{fill:#474747;}
	.st71{fill:#484848;}
	.st72{fill:#494949;}
	.st73{fill:#4A4A4A;}
	.st74{fill:#4B4B4B;}
	.st75{fill:#4C4C4C;}
	.st76{fill:#4D4D4D;}
	.st77{fill:#4E4E4E;}
	.st78{fill:#4F4F4F;}
	.st79{fill:#505050;}
	.st80{fill:#515151;}
	.st81{fill:#525252;}
	.st82{fill:#535353;}
	.st83{fill:#545454;}
	.st84{fill:#555555;}
	.st85{fill:#565656;}
	.st86{fill:#575757;}
	.st87{fill:#585858;}
	.st88{fill:#595959;}
	.st89{fill:#5A5A5A;}
	.st90{fill:#5B5B5B;}
	.st91{fill:#5C5C5C;}
	.st92{fill:#5D5D5D;}
	.st93{fill:#5E5E5E;}
	.st94{fill:#5F5F5F;}
	.st95{fill:#606060;}
	.st96{fill:#616161;}
	.st97{fill:#626262;}
	.st98{fill:#636363;}
	.st99{fill:#646464;}
	.st100{fill:#656565;}
	.st101{fill:#666666;}
	.st102{fill:#676767;}
	.st103{fill:#686868;}
	.st104{fill:#696969;}
	.st105{fill:#6A6A6A;}
	.st106{fill:#6B6B6B;}
	.st107{fill:#6C6C6C;}
	.st108{fill:#6D6D6D;}
	.st109{fill:#6E6E6E;}
	.st110{fill:#6F6F6F;}
	.st111{fill:#707070;}
	.st112{fill:#717171;}
	.st113{fill:#727272;}
	.st114{fill:#737373;}
	.st115{fill:#747474;}
	.st116{fill:#757575;}
	.st117{fill:#767676;}
	.st118{fill:#777777;}
	.st119{fill:#787878;}
	.st120{fill:#797979;}
	.st121{fill:#7A7A7A;}
	.st122{fill:#7B7B7B;}
	.st123{fill:#7C7C7C;}
	.st124{fill:#7D7D7D;}
	.st125{fill:#7E7E7E;}
	.st126{fill:#7F7F7F;}
	.st127{fill:#808080;}
	.st128{fill:#818181;}
	.st129{fill:#828282;}
	.st130{fill:#838383;}
	.st131{fill:#848484;}
	.st132{fill:#858585;}
	.st133{fill:#868686;}
	.st134{fill:#878787;}
	.st135{fill:#888888;}
	.st136{fill:#898989;}
	.st137{fill:#8A8A8A;}
	.st138{fill:#8B8B8B;}
	.st139{fill:#8C8C8C;}
	.st140{fill:#8D8D8D;}
	.st141{fill:#8E8E8E;}
	.st142{fill:#8F8F8F;}
	.st143{fill:#909090;}
	.st144{fill:#919191;}
	.st145{fill:#929292;}
	.st146{fill:#939393;}
	.st147{fill:#949494;}
	.st148{fill:#959595;}
	.st149{fill:#969696;}
	.st150{fill:#979797;}
	.st151{fill:#989898;}
	.st152{fill:#999999;}
	.st153{fill:#9A9A9A;}
	.st154{fill:#9B9B9B;}
	.st155{fill:#9C9C9C;}
	.st156{fill:#9D9D9D;}
	.st157{fill:#9E9E9E;}
	.st158{fill:#9F9F9F;}
	.st159{fill:#A0A0A0;}
	.st160{fill:#A1A1A1;}
	.st161{fill:#A2A2A2;}
	.st162{fill:#A3A3A3;}
	.st163{fill:#A4A4A4;}
	.st164{fill:#A5A5A5;}
	.st165{fill:#A6A6A6;}
	.st166{fill:#A7A7A7;}
	.st167{fill:#A8A8A8;}
	.st168{fill:#A9A9A9;}
	.st169{fill:#AAAAAA;}
	.st170{fill:#ABABAB;}
	.st171{fill:#ACACAC;}
	.st172{fill:#ADADAD;}
	.st173{fill:#AEAEAE;}
	.st174{fill:#AFAFAF;}
	.st175{fill:#B0B0B0;}
	.st176{fill:#B1B1B1;}
	.st177{fill:#B2B2B2;}
	.st178{fill:#B3B3B3;}
	.st179{fill:#B4B4B4;}
	.st180{fill:#B5B5B5;}
	.st181{fill:#B6B6B6;}
	.st182{fill:#B7B7B7;}
	.st183{fill:#B8B8B8;}
	.st184{fill:#B9B9B9;}
	.st185{fill:#BABABA;}
	.st186{fill:#BBBBBB;}
	.st187{fill:#BCBCBC;}
	.st188{fill:#BDBDBD;}
	.st189{fill:#BEBEBE;}
	.st190{fill:#BFBFBF;}
	.st191{fill:#C0C0C0;}
	.st192{fill:#C1C1C1;}
	.st193{fill:#C2C2C2;}
	.st194{fill:#C3C3C3;}
	.st195{fill:#C4C4C4;}
	.st196{fill:#C5C5C5;}
	.st197{fill:#C6C6C6;}
	.st198{fill:#C7C7C7;}
	.st199{fill:#C8C8C8;}
	.st200{fill:#C9C9C9;}
	.st201{fill:#CACACA;}
	.st202{fill:#CBCBCB;}
	.st203{fill:#CCCCCC;}
	.st204{fill:#CDCDCD;}
	.st205{fill:#CECECE;}
	.st206{fill:#CFCFCF;}
	.st207{fill:#D0D0D0;}
	.st208{fill:#D1D1D1;}
	.st209{fill:#D2D2D2;}
	.st210{fill:#D3D3D3;}
	.st211{fill:#D4D4D4;}
	.st212{fill:#D5D5D5;}
	.st213{fill:#D6D6D6;}
	.st214{fill:#D7D7D7;}
	.st215{fill:#D8D8D8;}
	.st216{fill:#D9D9D9;}
	.st217{fill:#DADADA;}
	.st218{fill:#DBDBDB;}
	.st219{fill:#DCDCDC;}
	.st220{fill:#DDDDDD;}
	.st221{fill:#DEDEDE;}
	.st222{fill:#DFDFDF;}
	.st223{fill:#E0E0E0;}
	.st224{fill:#E1E1E1;}
	.st225{fill:#E2E2E2;}
	.st226{fill:#E3E3E3;}
	.st227{fill:#E4E4E4;}
	.st228{fill:#E5E5E5;}
	.st229{fill:#E6E6E6;}
	.st230{fill:#E7E7E7;}
	.st231{fill:#E8E8E8;}
	.st232{fill:#E9E9E9;}
	.st233{fill:#EAEAEA;}
	.st234{fill:#EBEBEB;}
	.st235{fill:#ECECEC;}
	.st236{fill:#EDEDED;}
	.st237{fill:#EEEEEE;}
	.st238{fill:#EFEFEF;}
	.st239{fill:#F0F0F0;}
	.st240{fill:#F1F1F1;}
	.st241{fill:#F2F2F2;}
	.st242{fill:#F3F3F3;}
	.st243{fill:#F4F4F4;}
	.st244{fill:#F5F5F5;}
	.st245{fill:#F6F6F6;}
	.st246{fill:#F7F7F7;}
	.st247{fill:#F8F8F8;}
	.st248{fill:#F9F9F9;}
	.st249{fill:#FAFAFA;}
	.st250{fill:#FBFBFB;}
	.st251{fill:#FCFCFC;}
	.st252{fill:#FDFDFD;}
	.st253{fill:#FEFEFE;}
	.st254{fill:#FFFFFF;}
</style>
<g>
	<path d="M24,42l-2.9-2.6C10.8,30.2,4,24.2,4,16.8C4,10.7,8.8,6,15,6c3.5,0,6.8,1.6,9,4.1C26.2,7.6,29.5,6,33,6
		c6.2,0,11,4.7,11,10.8c0,7.4-6.8,13.5-17.1,22.6L24,42z"/>
	<path class="st0" d="M24,41.9l-2.9-2.6c-10.3-9.1-17-15.1-17-22.5c0-6,4.8-10.7,11-10.7c3.5,0,6.8,1.6,9,4.1c2.2-2.5,5.5-4.1,9-4.1
		c6.1,0,11,4.7,11,10.7c0,7.4-6.8,13.4-17,22.6L24,41.9z"/>
	<path class="st1" d="M24,41.8l-2.9-2.6c-10.2-9.1-17-15.1-17-22.4c0-6,4.8-10.7,10.9-10.7c3.5,0,6.8,1.6,8.9,4.1
		c2.2-2.5,5.5-4.1,8.9-4.1c6.1,0,10.9,4.7,10.9,10.7c0,7.4-6.7,13.4-17,22.5L24,41.8z"/>
	<path class="st2" d="M24,41.8l-2.9-2.6C11,30.2,4.2,24.2,4.2,16.8c0-6,4.8-10.7,10.9-10.7c3.4,0,6.7,1.6,8.9,4.1
		c2.2-2.5,5.5-4.1,8.9-4.1c6.1,0,10.9,4.7,10.9,10.7c0,7.3-6.7,13.3-16.9,22.4L24,41.8z"/>
	<path class="st3" d="M24,41.7l-2.9-2.5c-10.1-9-16.8-15-16.8-22.3c0-5.9,4.8-10.6,10.8-10.6c3.4,0,6.7,1.6,8.9,4
		c2.1-2.5,5.4-4,8.9-4c6.1,0,10.8,4.7,10.8,10.6c0,7.3-6.7,13.3-16.8,22.3L24,41.7z"/>
	<path class="st4" d="M24,41.6l-2.8-2.5c-10.1-9-16.8-14.9-16.8-22.2C4.4,11,9.1,6.3,15.2,6.3c3.4,0,6.7,1.6,8.8,4
		c2.1-2.5,5.4-4,8.8-4c6,0,10.8,4.7,10.8,10.6c0,7.3-6.7,13.2-16.8,22.2L24,41.6z"/>
	<path class="st5" d="M24,41.5L21.2,39c-10.1-9-16.7-14.9-16.7-22.1C4.5,11,9.2,6.4,15.2,6.4c3.4,0,6.7,1.6,8.8,4
		c2.1-2.5,5.4-4,8.8-4c6,0,10.7,4.6,10.7,10.5c0,7.2-6.6,13.1-16.7,22.1L24,41.5z"/>
	<path class="st6" d="M24,41.5l-2.8-2.5c-10-8.9-16.6-14.8-16.6-22C4.5,11,9.2,6.4,15.2,6.4c3.4,0,6.6,1.5,8.8,4
		c2.1-2.4,5.4-4,8.8-4c6,0,10.7,4.6,10.7,10.5c0,7.2-6.6,13.1-16.6,22L24,41.5z"/>
	<path class="st7" d="M24,41.4l-2.8-2.5C11.2,30,4.6,24.1,4.6,16.9c0-5.9,4.7-10.5,10.7-10.5c3.4,0,6.6,1.5,8.7,4
		c2.1-2.4,5.4-4,8.7-4c6,0,10.7,4.6,10.7,10.5c0,7.2-6.6,13-16.6,21.9L24,41.4z"/>
	<path class="st8" d="M24,41.3l-2.8-2.5C11.3,30,4.7,24.1,4.7,17c0-5.8,4.7-10.4,10.6-10.4c3.4,0,6.6,1.5,8.7,4c2.1-2.4,5.3-4,8.7-4
		c5.9,0,10.6,4.6,10.6,10.4c0,7.2-6.6,13-16.5,21.9L24,41.3z"/>
	<path class="st9" d="M24,41.2l-2.8-2.5C11.3,29.9,4.8,24.1,4.8,17c0-5.8,4.7-10.4,10.6-10.4c3.3,0,6.6,1.5,8.7,3.9
		c2.1-2.4,5.3-3.9,8.7-3.9c5.9,0,10.6,4.6,10.6,10.4c0,7.1-6.5,12.9-16.4,21.8L24,41.2z"/>
	<path class="st10" d="M24,41.2l-2.8-2.5C11.4,29.9,4.8,24.1,4.8,17c0-5.8,4.6-10.3,10.5-10.3c3.3,0,6.5,1.5,8.6,3.9
		c2.1-2.4,5.3-3.9,8.6-3.9c5.9,0,10.5,4.5,10.5,10.3c0,7.1-6.5,12.9-16.4,21.7L24,41.2z"/>
	<path class="st11" d="M24,41.1l-2.8-2.5C11.4,29.9,4.9,24.1,4.9,17c0-5.8,4.6-10.3,10.5-10.3c3.3,0,6.5,1.5,8.6,3.9
		c2.1-2.4,5.3-3.9,8.6-3.9c5.9,0,10.5,4.5,10.5,10.3c0,7.1-6.5,12.8-16.3,21.6L24,41.1z"/>
	<path class="st12" d="M24,41l-2.8-2.5C11.5,29.8,5,24.1,5,17C5,11.3,9.6,6.8,15.5,6.8c3.3,0,6.5,1.5,8.5,3.9
		c2.1-2.4,5.2-3.9,8.5-3.9C38.4,6.8,43,11.3,43,17c0,7-6.5,12.8-16.2,21.5L24,41z"/>
	<path class="st13" d="M24,40.9l-2.7-2.5C11.5,29.8,5.1,24.1,5.1,17.1c0-5.7,4.6-10.2,10.4-10.2c3.3,0,6.5,1.5,8.5,3.9
		c2.1-2.4,5.2-3.9,8.5-3.9c5.8,0,10.4,4.5,10.4,10.2c0,7-6.4,12.7-16.2,21.4L24,40.9z"/>
	<path class="st14" d="M24,40.8l-2.7-2.4C11.6,29.8,5.2,24.1,5.2,17.1c0-5.7,4.6-10.2,10.4-10.2c3.3,0,6.4,1.5,8.5,3.9
		c2.1-2.4,5.2-3.9,8.5-3.9c5.8,0,10.4,4.5,10.4,10.2c0,7-6.4,12.7-16.1,21.3L24,40.8z"/>
	<path class="st15" d="M24,40.8l-2.7-2.4c-9.7-8.6-16-14.3-16-21.2C5.2,11.4,9.8,7,15.6,7c3.3,0,6.4,1.5,8.4,3.8
		C26,8.5,29.2,7,32.4,7c5.8,0,10.3,4.5,10.3,10.1c0,7-6.4,12.6-16,21.2L24,40.8z"/>
	<path class="st16" d="M24,40.7l-2.7-2.4c-9.6-8.6-16-14.2-16-21.1C5.3,11.5,9.8,7,15.6,7c3.3,0,6.4,1.5,8.4,3.8
		C26,8.5,29.2,7,32.4,7c5.8,0,10.3,4.4,10.3,10.1c0,6.9-6.4,12.6-16,21.2L24,40.7z"/>
	<path class="st17" d="M24,40.6l-2.7-2.4C11.7,29.7,5.4,24.1,5.4,17.1c0-5.6,4.5-10,10.2-10c3.2,0,6.3,1.5,8.4,3.8
		c2-2.3,5.1-3.8,8.4-3.8c5.7,0,10.2,4.4,10.2,10c0,6.9-6.3,12.5-15.9,21.1L24,40.6z"/>
	<path class="st18" d="M24,40.5l-2.7-2.4C11.8,29.6,5.5,24,5.5,17.2c0-5.6,4.5-10,10.2-10c3.2,0,6.3,1.5,8.3,3.8
		c2-2.3,5.1-3.8,8.3-3.8c5.7,0,10.2,4.4,10.2,10c0,6.9-6.3,12.5-15.8,21L24,40.5z"/>
	<path class="st19" d="M24,40.5l-2.7-2.4C11.8,29.6,5.5,24,5.5,17.2c0-5.6,4.5-10,10.2-10c3.2,0,6.3,1.5,8.3,3.8
		c2-2.3,5.1-3.8,8.3-3.8c5.7,0,10.2,4.4,10.2,10c0,6.8-6.3,12.4-15.8,20.9L24,40.5z"/>
	<path class="st20" d="M24,40.4L21.3,38C11.9,29.6,5.6,24,5.6,17.2c0-5.6,4.4-9.9,10.1-9.9c3.2,0,6.3,1.5,8.3,3.8
		c2-2.3,5.1-3.8,8.3-3.8c5.7,0,10.1,4.4,10.1,9.9c0,6.8-6.3,12.4-15.7,20.8L24,40.4z"/>
	<path class="st21" d="M24,40.3l-2.7-2.4C11.9,29.5,5.7,24,5.7,17.2c0-5.5,4.4-9.9,10.1-9.9c3.2,0,6.2,1.5,8.2,3.8
		c2-2.3,5.1-3.8,8.2-3.8c5.6,0,10.1,4.3,10.1,9.9c0,6.8-6.2,12.3-15.7,20.7L24,40.3z"/>
	<path class="st22" d="M24,40.2l-2.6-2.4C12,29.5,5.8,24,5.8,17.2c0-5.5,4.4-9.8,10-9.8c3.2,0,6.2,1.4,8.2,3.7c2-2.3,5-3.7,8.2-3.7
		c5.6,0,10,4.3,10,9.8c0,6.8-6.2,12.3-15.6,20.6L24,40.2z"/>
	<path class="st23" d="M24,40.1l-2.6-2.4C12,29.5,5.8,24,5.8,17.3c0-5.5,4.4-9.8,10-9.8c3.2,0,6.2,1.4,8.2,3.7c2-2.3,5-3.7,8.2-3.7
		c5.6,0,10,4.3,10,9.8c0,6.7-6.2,12.2-15.5,20.5L24,40.1z"/>
	<path class="st24" d="M24,40.1l-2.6-2.3C12.1,29.5,5.9,24,5.9,17.3c0-5.5,4.4-9.8,9.9-9.8C19,7.5,22,9,24,11.2c2-2.3,5-3.7,8.1-3.7
		c5.6,0,9.9,4.3,9.9,9.8c0,6.7-6.1,12.2-15.5,20.5L24,40.1z"/>
	<path class="st25" d="M24,40l-2.6-2.3C12.1,29.4,6,24,6,17.3c0-5.4,4.4-9.7,9.9-9.7C19,7.6,22,9,24,11.3c2-2.3,5-3.7,8.1-3.7
		c5.5,0,9.9,4.3,9.9,9.7c0,6.7-6.1,12.1-15.4,20.4L24,40z"/>
	<path class="st26" d="M24,39.9l-2.6-2.3C12.2,29.4,6.1,24,6.1,17.3c0-5.4,4.3-9.7,9.9-9.7c3.1,0,6.1,1.4,8.1,3.7
		c2-2.3,4.9-3.7,8.1-3.7c5.5,0,9.9,4.3,9.9,9.7c0,6.6-6.1,12.1-15.3,20.3L24,39.9z"/>
	<path class="st27" d="M24,39.8l-2.6-2.3C12.2,29.4,6.2,24,6.2,17.3c0-5.4,4.3-9.6,9.8-9.6c3.1,0,6.1,1.4,8,3.7
		c1.9-2.2,4.9-3.7,8-3.7c5.5,0,9.8,4.2,9.8,9.6c0,6.6-6.1,12-15.3,20.2L24,39.8z"/>
	<path class="st28" d="M24,39.8l-2.6-2.3C12.3,29.3,6.2,24,6.2,17.4c0-5.4,4.3-9.6,9.8-9.6c3.1,0,6.1,1.4,8,3.6
		c1.9-2.2,4.9-3.6,8-3.6c5.5,0,9.8,4.2,9.8,9.6c0,6.6-6,12-15.2,20.1L24,39.8z"/>
	<path class="st29" d="M24,39.7l-2.6-2.3c-9.1-8.1-15.1-13.4-15.1-20c0-5.3,4.3-9.5,9.7-9.5c3.1,0,6,1.4,8,3.6
		c1.9-2.2,4.9-3.6,8-3.6c5.4,0,9.7,4.2,9.7,9.5c0,6.6-6,11.9-15.1,20L24,39.7z"/>
	<path class="st30" d="M24,39.6l-2.6-2.3C12.4,29.3,6.4,23.9,6.4,17.4c0-5.3,4.3-9.5,9.7-9.5c3.1,0,6,1.4,7.9,3.6
		c1.9-2.2,4.9-3.6,7.9-3.6c5.4,0,9.7,4.2,9.7,9.5c0,6.5-6,11.9-15.1,19.9L24,39.6z"/>
	<path class="st31" d="M24,39.5l-2.5-2.3c-9-8-15-13.3-15-19.8c0-5.3,4.2-9.5,9.6-9.5c3.1,0,6,1.4,7.9,3.6C25.9,9.4,28.8,8,31.9,8
		c5.4,0,9.6,4.2,9.6,9.5c0,6.5-6,11.8-15,19.9L24,39.5z"/>
	<path class="st32" d="M24,39.5l-2.5-2.3c-9-8-14.9-13.3-14.9-19.7c0-5.3,4.2-9.4,9.6-9.4c3,0,6,1.4,7.9,3.6C25.9,9.4,28.8,8,31.9,8
		c5.4,0,9.6,4.1,9.6,9.4c0,6.5-5.9,11.7-14.9,19.8L24,39.5z"/>
	<path class="st33" d="M24,39.4l-2.5-2.3c-9-8-14.9-13.2-14.9-19.7c0-5.3,4.2-9.4,9.6-9.4c3,0,5.9,1.4,7.8,3.6
		c1.9-2.2,4.8-3.6,7.8-3.6c5.4,0,9.6,4.1,9.6,9.4c0,6.4-5.9,11.7-14.9,19.7L24,39.4z"/>
	<path class="st34" d="M24,39.3l-2.5-2.2C12.6,29.1,6.7,23.9,6.7,17.5c0-5.2,4.2-9.3,9.5-9.3c3,0,5.9,1.4,7.8,3.5
		c1.9-2.2,4.8-3.5,7.8-3.5c5.3,0,9.5,4.1,9.5,9.3c0,6.4-5.9,11.6-14.8,19.6L24,39.3z"/>
	<path class="st35" d="M24,39.2L21.5,37C12.6,29.1,6.8,23.9,6.8,17.5c0-5.2,4.2-9.3,9.5-9.3c3,0,5.9,1.4,7.8,3.5
		c1.9-2.2,4.8-3.5,7.8-3.5c5.3,0,9.5,4.1,9.5,9.3c0,6.4-5.9,11.6-14.7,19.5L24,39.2z"/>
	<path class="st36" d="M24,39.1l-2.5-2.2c-8.8-7.9-14.7-13-14.7-19.4c0-5.2,4.2-9.3,9.4-9.3c3,0,5.8,1.4,7.7,3.5
		c1.9-2.2,4.7-3.5,7.7-3.5c5.3,0,9.4,4.1,9.4,9.3c0,6.4-5.8,11.5-14.7,19.4L24,39.1z"/>
	<path class="st37" d="M24,39.1l-2.5-2.2C12.7,29,6.9,23.9,6.9,17.5c0-5.2,4.1-9.2,9.4-9.2c3,0,5.8,1.4,7.7,3.5
		c1.9-2.1,4.7-3.5,7.7-3.5c5.3,0,9.4,4.1,9.4,9.2c0,6.3-5.8,11.5-14.6,19.3L24,39.1z"/>
	<path class="st38" d="M24,39l-2.5-2.2C12.8,29,7,23.9,7,17.6c0-5.1,4.1-9.2,9.3-9.2c3,0,5.8,1.4,7.6,3.5c1.9-2.1,4.7-3.5,7.6-3.5
		c5.2,0,9.3,4,9.3,9.2c0,6.3-5.8,11.4-14.5,19.2L24,39z"/>
	<path class="st39" d="M24,38.9l-2.5-2.2C12.8,29,7.1,23.9,7.1,17.6c0-5.1,4.1-9.1,9.3-9.1c2.9,0,5.8,1.3,7.6,3.5
		c1.8-2.1,4.7-3.5,7.6-3.5c5.2,0,9.3,4,9.3,9.1c0,6.3-5.8,11.4-14.5,19.2L24,38.9z"/>
	<path class="st40" d="M24,38.8l-2.4-2.2C12.9,28.9,7.2,23.9,7.2,17.6c0-5.1,4.1-9.1,9.3-9.1c2.9,0,5.7,1.3,7.6,3.5
		c1.8-2.1,4.6-3.5,7.6-3.5c5.2,0,9.3,4,9.3,9.1c0,6.2-5.7,11.3-14.4,19.1L24,38.8z"/>
	<path class="st41" d="M24,38.8l-2.4-2.2c-8.6-7.7-14.3-12.7-14.3-19c0-5.1,4.1-9,9.2-9c2.9,0,5.7,1.3,7.5,3.4
		c1.8-2.1,4.6-3.4,7.5-3.4c5.2,0,9.2,4,9.2,9c0,6.2-5.7,11.3-14.3,19L24,38.8z"/>
	<path class="st42" d="M24,38.7l-2.4-2.2C13,28.9,7.3,23.8,7.3,17.6c0-5,4-9,9.2-9c2.9,0,5.7,1.3,7.5,3.4c1.8-2.1,4.6-3.4,7.5-3.4
		c5.1,0,9.2,4,9.2,9c0,6.2-5.7,11.2-14.3,18.9L24,38.7z"/>
	<path class="st43" d="M24,38.6l-2.4-2.2C13,28.8,7.4,23.8,7.4,17.7c0-5,4-9,9.1-9c2.9,0,5.7,1.3,7.5,3.4c1.8-2.1,4.6-3.4,7.5-3.4
		c5.1,0,9.1,3.9,9.1,9c0,6.2-5.6,11.2-14.2,18.8L24,38.6z"/>
	<path class="st44" d="M24,38.5l-2.4-2.1C13.1,28.8,7.5,23.8,7.5,17.7c0-5,4-8.9,9.1-8.9c2.9,0,5.6,1.3,7.4,3.4
		c1.8-2.1,4.6-3.4,7.4-3.4c5.1,0,9.1,3.9,9.1,8.9c0,6.1-5.6,11.1-14.1,18.7L24,38.5z"/>
	<path class="st45" d="M24,38.5l-2.4-2.1C13.1,28.8,7.5,23.8,7.5,17.7c0-5,4-8.9,9.1-8.9c2.9,0,5.6,1.3,7.4,3.4
		c1.8-2.1,4.5-3.4,7.4-3.4c5.1,0,9.1,3.9,9.1,8.9c0,6.1-5.6,11.1-14.1,18.6L24,38.5z"/>
	<path class="st46" d="M24,38.4l-2.4-2.1c-8.4-7.5-14-12.5-14-18.5c0-4.9,4-8.8,9-8.8c2.9,0,5.6,1.3,7.4,3.4
		c1.8-2.1,4.5-3.4,7.4-3.4c5,0,9,3.9,9,8.8c0,6.1-5.6,11-14,18.5L24,38.4z"/>
	<path class="st47" d="M24,38.3l-2.4-2.1C13.2,28.7,7.7,23.8,7.7,17.7c0-4.9,3.9-8.8,9-8.8c2.8,0,5.6,1.3,7.3,3.3
		c1.8-2,4.5-3.3,7.3-3.3c5,0,9,3.9,9,8.8c0,6-5.5,11-13.9,18.5L24,38.3z"/>
	<path class="st48" d="M24,38.2l-2.4-2.1C13.3,28.7,7.8,23.8,7.8,17.8c0-4.9,3.9-8.8,8.9-8.8c2.8,0,5.5,1.3,7.3,3.3
		c1.8-2,4.5-3.3,7.3-3.3c5,0,8.9,3.9,8.9,8.8c0,6-5.5,10.9-13.9,18.4L24,38.2z"/>
	<path class="st49" d="M24,38.1l-2.3-2.1C13.3,28.7,7.8,23.8,7.8,17.8c0-4.9,3.9-8.7,8.9-8.7c2.8,0,5.5,1.3,7.3,3.3
		c1.8-2,4.5-3.3,7.3-3.3c5,0,8.9,3.8,8.9,8.7c0,6-5.5,10.9-13.8,18.3L24,38.1z"/>
	<path class="st50" d="M24,38.1L21.7,36C13.4,28.6,7.9,23.8,7.9,17.8c0-4.9,3.9-8.7,8.8-8.7c2.8,0,5.5,1.3,7.2,3.3
		c1.8-2,4.4-3.3,7.2-3.3c5,0,8.8,3.8,8.8,8.7c0,6-5.5,10.8-13.7,18.2L24,38.1z"/>
	<path class="st51" d="M24,38l-2.3-2.1C13.4,28.6,8,23.8,8,17.8c0-4.8,3.9-8.6,8.8-8.6c2.8,0,5.5,1.3,7.2,3.3c1.7-2,4.4-3.3,7.2-3.3
		c4.9,0,8.8,3.8,8.8,8.6c0,5.9-5.4,10.8-13.7,18.1L24,38z"/>
	<path class="st52" d="M24,37.9l-2.3-2.1c-8.2-7.3-13.6-12.1-13.6-18c0-4.8,3.9-8.6,8.8-8.6c2.8,0,5.4,1.3,7.2,3.3
		c1.7-2,4.4-3.3,7.2-3.3c4.9,0,8.8,3.8,8.8,8.6c0,5.9-5.4,10.7-13.6,18L24,37.9z"/>
	<path class="st53" d="M24,37.8l-2.3-2.1c-8.2-7.3-13.5-12-13.5-17.9c0-4.8,3.8-8.5,8.7-8.5c2.8,0,5.4,1.3,7.1,3.2
		c1.7-2,4.4-3.2,7.1-3.2c4.9,0,8.7,3.8,8.7,8.5c0,5.9-5.4,10.7-13.5,17.9L24,37.8z"/>
	<path class="st54" d="M24,37.8l-2.3-2c-8.1-7.2-13.5-12-13.5-17.8c0-4.8,3.8-8.5,8.7-8.5c2.7,0,5.4,1.3,7.1,3.2
		c1.7-2,4.4-3.2,7.1-3.2c4.9,0,8.7,3.7,8.7,8.5c0,5.8-5.4,10.6-13.5,17.8L24,37.8z"/>
	<path class="st55" d="M24,37.7l-2.3-2C13.6,28.5,8.3,23.7,8.3,17.9c0-4.7,3.8-8.5,8.6-8.5c2.7,0,5.4,1.2,7.1,3.2
		c1.7-2,4.3-3.2,7.1-3.2c4.8,0,8.6,3.7,8.6,8.5c0,5.8-5.3,10.6-13.4,17.8L24,37.7z"/>
	<path class="st56" d="M24,37.6l-2.3-2c-8-7.2-13.3-11.9-13.3-17.7c0-4.7,3.8-8.4,8.6-8.4c2.7,0,5.3,1.2,7,3.2c1.7-2,4.3-3.2,7-3.2
		c4.8,0,8.6,3.7,8.6,8.4c0,5.8-5.3,10.5-13.3,17.7L24,37.6z"/>
	<path class="st57" d="M24,37.5l-2.3-2c-8-7.1-13.3-11.8-13.3-17.6c0-4.7,3.8-8.4,8.5-8.4c2.7,0,5.3,1.2,7,3.2c1.7-2,4.3-3.2,7-3.2
		c4.8,0,8.5,3.7,8.5,8.4c0,5.8-5.3,10.5-13.3,17.6L24,37.5z"/>
	<path class="st58" d="M24,37.5l-2.2-2C13.8,28.4,8.5,23.7,8.5,18c0-4.7,3.7-8.3,8.5-8.3c2.7,0,5.3,1.2,7,3.2c1.7-1.9,4.3-3.2,7-3.2
		c4.8,0,8.5,3.7,8.5,8.3c0,5.7-5.3,10.4-13.2,17.5L24,37.5z"/>
	<path class="st59" d="M24,37.4l-2.2-2C13.8,28.3,8.6,23.7,8.6,18c0-4.6,3.7-8.3,8.5-8.3c2.7,0,5.2,1.2,6.9,3.2
		c1.7-1.9,4.2-3.2,6.9-3.2c4.7,0,8.5,3.7,8.5,8.3c0,5.7-5.2,10.4-13.2,17.4L24,37.4z"/>
	<path class="st60" d="M24,37.3l-2.2-2C13.9,28.3,8.7,23.7,8.7,18c0-4.6,3.7-8.3,8.4-8.3c2.7,0,5.2,1.2,6.9,3.1
		c1.7-1.9,4.2-3.1,6.9-3.1c4.7,0,8.4,3.6,8.4,8.3c0,5.7-5.2,10.3-13.1,17.3L24,37.3z"/>
	<path class="st61" d="M24,37.2l-2.2-2c-7.8-7-13-11.6-13-17.2c0-4.6,3.7-8.2,8.4-8.2c2.6,0,5.2,1.2,6.9,3.1
		c1.7-1.9,4.2-3.1,6.9-3.1c4.7,0,8.4,3.6,8.4,8.2c0,5.6-5.2,10.2-13,17.2L24,37.2z"/>
	<path class="st62" d="M24,37.1l-2.2-2C14,28.2,8.8,23.7,8.8,18c0-4.6,3.7-8.2,8.3-8.2c2.6,0,5.2,1.2,6.8,3.1
		c1.7-1.9,4.2-3.1,6.8-3.1c4.7,0,8.3,3.6,8.3,8.2c0,5.6-5.2,10.2-13,17.2L24,37.1z"/>
	<path class="st63" d="M24,37.1l-2.2-2c-7.8-6.9-12.9-11.5-12.9-17c0-4.6,3.6-8.1,8.3-8.1c2.6,0,5.1,1.2,6.8,3.1
		c1.6-1.9,4.2-3.1,6.8-3.1c4.6,0,8.3,3.6,8.3,8.1c0,5.6-5.1,10.1-12.9,17.1L24,37.1z"/>
	<path class="st64" d="M24,37L21.8,35C14.1,28.2,9,23.6,9,18.1c0-4.5,3.6-8.1,8.2-8.1c2.6,0,5.1,1.2,6.7,3.1
		c1.6-1.9,4.1-3.1,6.7-3.1c4.6,0,8.2,3.6,8.2,8.1c0,5.6-5.1,10.1-12.8,17L24,37z"/>
	<path class="st65" d="M24,36.9L21.8,35C14.2,28.1,9.1,23.6,9.1,18.1c0-4.5,3.6-8,8.2-8c2.6,0,5.1,1.2,6.7,3.1
		c1.6-1.9,4.1-3.1,6.7-3.1c4.6,0,8.2,3.5,8.2,8c0,5.5-5.1,10-12.8,16.9L24,36.9z"/>
	<path class="st66" d="M24,36.8l-2.2-1.9C14.2,28.1,9.2,23.6,9.2,18.1c0-4.5,3.6-8,8.2-8c2.6,0,5.1,1.2,6.7,3c1.6-1.9,4.1-3,6.7-3
		c4.6,0,8.2,3.5,8.2,8c0,5.5-5,10-12.7,16.8L24,36.8z"/>
	<path class="st67" d="M24,36.8l-2.1-1.9C14.3,28.1,9.2,23.6,9.2,18.1c0-4.5,3.6-8,8.1-8c2.6,0,5,1.2,6.6,3c1.6-1.9,4.1-3,6.6-3
		c4.5,0,8.1,3.5,8.1,8c0,5.5-5,9.9-12.6,16.7L24,36.8z"/>
	<path class="st68" d="M24,36.7l-2.1-1.9C14.3,28,9.3,23.6,9.3,18.2c0-4.4,3.6-7.9,8.1-7.9c2.6,0,5,1.2,6.6,3c1.6-1.8,4.1-3,6.6-3
		c4.5,0,8.1,3.5,8.1,7.9c0,5.4-5,9.9-12.6,16.6L24,36.7z"/>
	<path class="st69" d="M24,36.6l-2.1-1.9C14.4,28,9.4,23.6,9.4,18.2c0-4.4,3.5-7.9,8-7.9c2.5,0,5,1.2,6.6,3c1.6-1.8,4-3,6.6-3
		c4.5,0,8,3.5,8,7.9c0,5.4-5,9.8-12.5,16.5L24,36.6z"/>
	<path class="st70" d="M24,36.5l-2.1-1.9C14.4,28,9.5,23.6,9.5,18.2c0-4.4,3.5-7.8,8-7.8c2.5,0,5,1.2,6.5,3c1.6-1.8,4-3,6.5-3
		c4.5,0,8,3.5,8,7.8c0,5.4-4.9,9.8-12.4,16.5L24,36.5z"/>
	<path class="st71" d="M24,36.4l-2.1-1.9C14.5,28,9.5,23.6,9.5,18.2c0-4.4,3.5-7.8,8-7.8c2.5,0,4.9,1.1,6.5,3c1.6-1.8,4-3,6.5-3
		c4.5,0,8,3.4,8,7.8c0,5.4-4.9,9.7-12.4,16.4L24,36.4z"/>
	<path class="st72" d="M24,36.4l-2.1-1.9C14.5,27.9,9.6,23.6,9.6,18.2c0-4.3,3.5-7.8,7.9-7.8c2.5,0,4.9,1.1,6.5,2.9
		c1.6-1.8,4-2.9,6.5-2.9c4.4,0,7.9,3.4,7.9,7.8c0,5.3-4.9,9.7-12.3,16.3L24,36.4z"/>
	<path class="st73" d="M24,36.3l-2.1-1.9C14.6,27.9,9.7,23.6,9.7,18.3c0-4.3,3.5-7.7,7.9-7.7c2.5,0,4.9,1.1,6.4,2.9
		c1.6-1.8,3.9-2.9,6.4-2.9c4.4,0,7.9,3.4,7.9,7.7c0,5.3-4.9,9.6-12.2,16.2L24,36.3z"/>
	<path class="st74" d="M24,36.2l-2.1-1.8C14.6,27.9,9.8,23.6,9.8,18.3c0-4.3,3.4-7.7,7.8-7.7c2.5,0,4.9,1.1,6.4,2.9
		c1.6-1.8,3.9-2.9,6.4-2.9c4.4,0,7.8,3.4,7.8,7.7c0,5.3-4.8,9.6-12.2,16.1L24,36.2z"/>
	<path class="st75" d="M24,36.1l-2.1-1.8c-7.3-6.5-12.1-10.8-12.1-16c0-4.3,3.4-7.6,7.8-7.6c2.5,0,4.8,1.1,6.4,2.9
		c1.5-1.8,3.9-2.9,6.4-2.9c4.4,0,7.8,3.4,7.8,7.6c0,5.2-4.8,9.5-12.1,16L24,36.1z"/>
	<path class="st76" d="M24,36.1l-2-1.8c-7.2-6.4-12-10.7-12-15.9c0-4.3,3.4-7.6,7.7-7.6c2.4,0,4.8,1.1,6.3,2.9
		c1.5-1.8,3.9-2.9,6.3-2.9c4.3,0,7.7,3.3,7.7,7.6c0,5.2-4.8,9.5-12,15.9L24,36.1z"/>
	<path class="st77" d="M24,36l-2-1.8c-7.2-6.4-12-10.6-12-15.8c0-4.2,3.4-7.6,7.7-7.6c2.4,0,4.8,1.1,6.3,2.9
		c1.5-1.8,3.9-2.9,6.3-2.9c4.3,0,7.7,3.3,7.7,7.6c0,5.2-4.8,9.4-12,15.8L24,36z"/>
	<path class="st78" d="M24,35.9l-2-1.8c-7.2-6.4-11.9-10.6-11.9-15.7c0-4.2,3.4-7.5,7.7-7.5c2.4,0,4.7,1.1,6.3,2.9
		c1.5-1.7,3.8-2.9,6.3-2.9c4.3,0,7.7,3.3,7.7,7.5c0,5.2-4.7,9.4-11.9,15.8L24,35.9z"/>
	<path class="st79" d="M24,35.8L22,34c-7.1-6.3-11.8-10.5-11.8-15.7c0-4.2,3.4-7.5,7.6-7.5c2.4,0,4.7,1.1,6.2,2.8
		c1.5-1.7,3.8-2.8,6.2-2.8c4.3,0,7.6,3.3,7.6,7.5c0,5.1-4.7,9.3-11.8,15.7L24,35.8z"/>
	<path class="st80" d="M24,35.8L22,34c-7.1-6.3-11.8-10.5-11.8-15.6c0-4.2,3.3-7.4,7.6-7.4c2.4,0,4.7,1.1,6.2,2.8
		c1.5-1.7,3.8-2.8,6.2-2.8c4.2,0,7.6,3.3,7.6,7.4c0,5.1-4.7,9.3-11.8,15.6L24,35.8z"/>
	<path class="st81" d="M24,35.7l-2-1.8C15,27.6,10.3,23.5,10.3,18.4c0-4.1,3.3-7.4,7.5-7.4c2.4,0,4.7,1.1,6.2,2.8
		c1.5-1.7,3.8-2.8,6.2-2.8c4.2,0,7.5,3.2,7.5,7.4c0,5.1-4.7,9.2-11.7,15.5L24,35.7z"/>
	<path class="st82" d="M24,35.6l-2-1.8c-7-6.2-11.6-10.3-11.6-15.4c0-4.1,3.3-7.3,7.5-7.3c2.4,0,4.6,1.1,6.1,2.8
		c1.5-1.7,3.8-2.8,6.1-2.8c4.2,0,7.5,3.2,7.5,7.3c0,5-4.6,9.2-11.6,15.4L24,35.6z"/>
	<path class="st83" d="M24,35.5l-2-1.8c-7-6.2-11.6-10.3-11.6-15.3c0-4.1,3.3-7.3,7.4-7.3c2.4,0,4.6,1.1,6.1,2.8
		c1.5-1.7,3.7-2.8,6.1-2.8c4.2,0,7.4,3.2,7.4,7.3c0,5-4.6,9.1-11.6,15.3L24,35.5z"/>
	<path class="st84" d="M24,35.4l-2-1.7c-6.9-6.2-11.5-10.2-11.5-15.2c0-4.1,3.3-7.3,7.4-7.3c2.3,0,4.6,1.1,6.1,2.8
		c1.5-1.7,3.7-2.8,6.1-2.8c4.1,0,7.4,3.2,7.4,7.3c0,5-4.6,9.1-11.5,15.2L24,35.4z"/>
	<path class="st85" d="M24,35.4l-1.9-1.7c-6.9-6.1-11.4-10.2-11.4-15.1c0-4,3.2-7.2,7.4-7.2c2.3,0,4.6,1.1,6,2.7
		c1.5-1.7,3.7-2.7,6-2.7c4.1,0,7.4,3.2,7.4,7.2c0,5-4.5,9-11.4,15.1L24,35.4z"/>
	<path class="st86" d="M24,35.3l-1.9-1.7c-6.9-6.1-11.4-10.1-11.4-15c0-4,3.2-7.2,7.3-7.2c2.3,0,4.5,1.1,6,2.7
		c1.5-1.7,3.7-2.7,6-2.7c4.1,0,7.3,3.2,7.3,7.2c0,4.9-4.5,9-11.4,15.1L24,35.3z"/>
	<path class="st87" d="M24,35.2l-1.9-1.7c-6.8-6.1-11.3-10.1-11.3-15c0-4,3.2-7.1,7.3-7.1c2.3,0,4.5,1.1,6,2.7
		c1.4-1.7,3.7-2.7,6-2.7c4.1,0,7.3,3.1,7.3,7.1c0,4.9-4.5,8.9-11.3,15L24,35.2z"/>
	<path class="st88" d="M24,35.1l-1.9-1.7c-6.8-6-11.2-10-11.2-14.9c0-4,3.2-7.1,7.2-7.1c2.3,0,4.5,1,5.9,2.7
		c1.4-1.7,3.6-2.7,5.9-2.7c4.1,0,7.2,3.1,7.2,7.1c0,4.9-4.5,8.8-11.2,14.9L24,35.1z"/>
	<path class="st89" d="M24,35.1l-1.9-1.7c-6.7-6-11.2-9.9-11.2-14.8c0-3.9,3.2-7.1,7.2-7.1c2.3,0,4.5,1,5.9,2.7
		c1.4-1.6,3.6-2.7,5.9-2.7c4,0,7.2,3.1,7.2,7.1c0,4.8-4.4,8.8-11.2,14.8L24,35.1z"/>
	<path class="st90" d="M24,35l-1.9-1.7c-6.7-6-11.1-9.9-11.1-14.7c0-3.9,3.1-7,7.1-7c2.3,0,4.4,1,5.8,2.7c1.4-1.6,3.6-2.7,5.8-2.7
		c4,0,7.1,3.1,7.1,7c0,4.8-4.4,8.7-11.1,14.7L24,35z"/>
	<path class="st91" d="M24,34.9l-1.9-1.7c-6.7-5.9-11-9.8-11-14.6c0-3.9,3.1-7,7.1-7c2.2,0,4.4,1,5.8,2.6c1.4-1.6,3.6-2.6,5.8-2.6
		c4,0,7.1,3.1,7.1,7c0,4.8-4.4,8.7-11,14.6L24,34.9z"/>
	<path class="st92" d="M24,34.8l-1.9-1.7c-6.6-5.9-11-9.8-11-14.5c0-3.9,3.1-6.9,7.1-6.9c2.2,0,4.4,1,5.8,2.6
		c1.4-1.6,3.5-2.6,5.8-2.6c4,0,7.1,3,7.1,6.9c0,4.8-4.4,8.6-11,14.5L24,34.8z"/>
	<path class="st93" d="M24,34.8l-1.9-1.7c-6.6-5.8-10.9-9.7-10.9-14.4c0-3.9,3.1-6.9,7-6.9c2.2,0,4.4,1,5.7,2.6
		c1.4-1.6,3.5-2.6,5.7-2.6c3.9,0,7,3,7,6.9c0,4.7-4.3,8.6-10.9,14.5L24,34.8z"/>
	<path class="st94" d="M24,34.7L22.2,33c-6.5-5.8-10.8-9.6-10.8-14.4c0-3.8,3.1-6.8,7-6.8c2.2,0,4.3,1,5.7,2.6
		c1.4-1.6,3.5-2.6,5.7-2.6c3.9,0,7,3,7,6.8c0,4.7-4.3,8.5-10.8,14.4L24,34.7z"/>
	<path class="st95" d="M24,34.6L22.2,33c-6.5-5.8-10.8-9.6-10.8-14.3c0-3.8,3.1-6.8,6.9-6.8c2.2,0,4.3,1,5.7,2.6
		c1.4-1.6,3.5-2.6,5.7-2.6c3.9,0,6.9,3,6.9,6.8c0,4.7-4.3,8.5-10.8,14.3L24,34.6z"/>
	<path class="st96" d="M24,34.5l-1.8-1.6c-6.5-5.7-10.7-9.5-10.7-14.2c0-3.8,3-6.8,6.9-6.8c2.2,0,4.3,1,5.6,2.6
		c1.4-1.6,3.5-2.6,5.6-2.6c3.9,0,6.9,3,6.9,6.8c0,4.6-4.3,8.4-10.7,14.2L24,34.5z"/>
	<path class="st97" d="M24,34.4l-1.8-1.6c-6.4-5.7-10.7-9.5-10.7-14.1c0-3.8,3-6.7,6.9-6.7c2.2,0,4.2,1,5.6,2.6
		c1.4-1.6,3.4-2.6,5.6-2.6c3.8,0,6.9,3,6.9,6.7c0,4.6-4.2,8.4-10.7,14.1L24,34.4z"/>
	<path class="st98" d="M24,34.4l-1.8-1.6c-6.4-5.7-10.6-9.4-10.6-14c0-3.7,3-6.7,6.8-6.7c2.2,0,4.2,1,5.6,2.5
		c1.3-1.6,3.4-2.5,5.6-2.5c3.8,0,6.8,2.9,6.8,6.7c0,4.6-4.2,8.3-10.6,14L24,34.4z"/>
	<path class="st99" d="M24,34.3l-1.8-1.6c-6.3-5.6-10.5-9.4-10.5-13.9c0-3.7,3-6.6,6.8-6.6c2.1,0,4.2,1,5.5,2.5
		c1.3-1.5,3.4-2.5,5.5-2.5c3.8,0,6.8,2.9,6.8,6.6c0,4.6-4.2,8.3-10.5,13.9L24,34.3z"/>
	<path class="st100" d="M24,34.2l-1.8-1.6c-6.3-5.6-10.5-9.3-10.5-13.8c0-3.7,3-6.6,6.7-6.6c2.1,0,4.2,1,5.5,2.5
		c1.3-1.5,3.4-2.5,5.5-2.5c3.8,0,6.7,2.9,6.7,6.6c0,4.5-4.2,8.2-10.5,13.8L24,34.2z"/>
	<path class="st101" d="M24,34.1l-1.8-1.6C16,27,11.8,23.3,11.8,18.8c0-3.7,2.9-6.6,6.7-6.6c2.1,0,4.1,1,5.5,2.5
		c1.3-1.5,3.4-2.5,5.5-2.5c3.7,0,6.7,2.9,6.7,6.6c0,4.5-4.1,8.2-10.4,13.8L24,34.1z"/>
	<path class="st102" d="M24,34.1l-1.8-1.6C16,27,11.9,23.3,11.9,18.8c0-3.6,2.9-6.5,6.6-6.5c2.1,0,4.1,1,5.4,2.5
		c1.3-1.5,3.3-2.5,5.4-2.5c3.7,0,6.6,2.9,6.6,6.5c0,4.5-4.1,8.1-10.3,13.7L24,34.1z"/>
	<path class="st103" d="M24,34l-1.7-1.6C16.1,26.9,12,23.3,12,18.9c0-3.6,2.9-6.5,6.6-6.5c2.1,0,4.1,1,5.4,2.5
		c1.3-1.5,3.3-2.5,5.4-2.5c3.7,0,6.6,2.8,6.6,6.5c0,4.4-4.1,8.1-10.3,13.6L24,34z"/>
	<path class="st104" d="M24,33.9l-1.7-1.5c-6.1-5.5-10.2-9.1-10.2-13.5c0-3.6,2.9-6.4,6.6-6.4c2.1,0,4.1,0.9,5.4,2.4
		c1.3-1.5,3.3-2.4,5.4-2.4c3.7,0,6.6,2.8,6.6,6.4c0,4.4-4.1,8-10.2,13.5L24,33.9z"/>
	<path class="st105" d="M24,33.8l-1.7-1.5c-6.1-5.4-10.1-9-10.1-13.4c0-3.6,2.9-6.4,6.5-6.4c2.1,0,4,0.9,5.3,2.4
		c1.3-1.5,3.3-2.4,5.3-2.4c3.6,0,6.5,2.8,6.5,6.4c0,4.4-4,8-10.1,13.4L24,33.8z"/>
	<path class="st106" d="M24,33.7l-1.7-1.5c-6.1-5.4-10.1-8.9-10.1-13.3c0-3.6,2.8-6.3,6.5-6.3c2,0,4,0.9,5.3,2.4
		c1.3-1.5,3.2-2.4,5.3-2.4c3.6,0,6.5,2.8,6.5,6.3c0,4.4-4,7.9-10.1,13.3L24,33.7z"/>
	<path class="st107" d="M24,33.7l-1.7-1.5c-6-5.4-10-8.9-10-13.2c0-3.5,2.8-6.3,6.4-6.3c2,0,4,0.9,5.3,2.4c1.3-1.5,3.2-2.4,5.3-2.4
		c3.6,0,6.4,2.8,6.4,6.3c0,4.3-4,7.9-10,13.2L24,33.7z"/>
	<path class="st108" d="M24,33.6l-1.7-1.5c-6-5.3-9.9-8.8-9.9-13.1c0-3.5,2.8-6.3,6.4-6.3c2,0,4,0.9,5.2,2.4
		c1.3-1.5,3.2-2.4,5.2-2.4c3.6,0,6.4,2.8,6.4,6.3c0,4.3-3.9,7.8-9.9,13.1L24,33.6z"/>
	<path class="st109" d="M24,33.5L22.3,32c-5.9-5.3-9.9-8.8-9.9-13c0-3.5,2.8-6.2,6.3-6.2c2,0,3.9,0.9,5.2,2.4
		c1.3-1.4,3.2-2.4,5.2-2.4c3.6,0,6.3,2.7,6.3,6.2c0,4.3-3.9,7.8-9.9,13.1L24,33.5z"/>
	<path class="st110" d="M24,33.4L22.3,32c-5.9-5.2-9.8-8.7-9.8-13c0-3.5,2.8-6.2,6.3-6.2c2,0,3.9,0.9,5.2,2.3
		c1.2-1.4,3.2-2.3,5.2-2.3c3.5,0,6.3,2.7,6.3,6.2c0,4.2-3.9,7.7-9.8,13L24,33.4z"/>
	<path class="st111" d="M24,33.4l-1.7-1.5c-5.9-5.2-9.7-8.7-9.7-12.9c0-3.4,2.8-6.1,6.3-6.1c2,0,3.9,0.9,5.1,2.3
		c1.2-1.4,3.1-2.3,5.1-2.3c3.5,0,6.3,2.7,6.3,6.1c0,4.2-3.9,7.7-9.7,12.9L24,33.4z"/>
	<path class="st112" d="M24,33.3l-1.6-1.5c-5.8-5.2-9.7-8.6-9.7-12.8c0-3.4,2.7-6.1,6.2-6.1c2,0,3.9,0.9,5.1,2.3
		c1.2-1.4,3.1-2.3,5.1-2.3c3.5,0,6.2,2.7,6.2,6.1c0,4.2-3.8,7.6-9.7,12.8L24,33.3z"/>
	<path class="st113" d="M24,33.2l-1.6-1.5c-5.8-5.1-9.6-8.5-9.6-12.7c0-3.4,2.7-6.1,6.2-6.1c2,0,3.8,0.9,5.1,2.3
		c1.2-1.4,3.1-2.3,5.1-2.3c3.5,0,6.2,2.7,6.2,6.1c0,4.2-3.8,7.6-9.6,12.7L24,33.2z"/>
	<path class="st114" d="M24,33.1l-1.6-1.4c-5.7-5.1-9.5-8.5-9.5-12.6c0-3.4,2.7-6,6.1-6c1.9,0,3.8,0.9,5,2.3c1.2-1.4,3.1-2.3,5-2.3
		c3.4,0,6.1,2.6,6.1,6c0,4.1-3.8,7.5-9.5,12.6L24,33.1z"/>
	<path class="st115" d="M24,33.1l-1.6-1.4c-5.7-5.1-9.5-8.4-9.5-12.5c0-3.3,2.7-6,6.1-6c1.9,0,3.8,0.9,5,2.3c1.2-1.4,3.1-2.3,5-2.3
		c3.4,0,6.1,2.6,6.1,6c0,4.1-3.8,7.5-9.5,12.5L24,33.1z"/>
	<path class="st116" d="M24,33l-1.6-1.4c-5.7-5-9.4-8.4-9.4-12.4c0-3.3,2.7-5.9,6-5.9c1.9,0,3.7,0.9,4.9,2.3c1.2-1.4,3-2.3,4.9-2.3
		c3.4,0,6,2.6,6,5.9c0,4.1-3.7,7.4-9.4,12.4L24,33z"/>
	<path class="st117" d="M24,32.9l-1.6-1.4c-5.6-5-9.3-8.3-9.3-12.3c0-3.3,2.6-5.9,6-5.9c1.9,0,3.7,0.9,4.9,2.2
		c1.2-1.4,3-2.2,4.9-2.2c3.4,0,6,2.6,6,5.9c0,4-3.7,7.3-9.3,12.4L24,32.9z"/>
	<path class="st118" d="M24,32.8l-1.6-1.4c-5.6-5-9.3-8.2-9.3-12.3c0-3.3,2.6-5.8,6-5.8c1.9,0,3.7,0.9,4.9,2.2
		c1.2-1.4,3-2.2,4.9-2.2c3.3,0,6,2.6,6,5.8c0,4-3.7,7.3-9.3,12.3L24,32.8z"/>
	<path class="st119" d="M24,32.7l-1.6-1.4c-5.5-4.9-9.2-8.2-9.2-12.2c0-3.3,2.6-5.8,5.9-5.8c1.9,0,3.7,0.9,4.8,2.2
		c1.2-1.4,3-2.2,4.8-2.2c3.3,0,5.9,2.6,5.9,5.8c0,4-3.7,7.2-9.2,12.2L24,32.7z"/>
	<path class="st120" d="M24,32.7l-1.5-1.4c-5.5-4.9-9.1-8.1-9.1-12.1c0-3.2,2.6-5.8,5.9-5.8c1.9,0,3.6,0.8,4.8,2.2
		c1.2-1.3,2.9-2.2,4.8-2.2c3.3,0,5.9,2.5,5.9,5.8c0,4-3.6,7.2-9.1,12.1L24,32.7z"/>
	<path class="st121" d="M24,32.6l-1.5-1.4c-5.5-4.9-9.1-8.1-9.1-12c0-3.2,2.6-5.7,5.8-5.7c1.8,0,3.6,0.8,4.8,2.2
		c1.2-1.3,2.9-2.2,4.8-2.2c3.3,0,5.8,2.5,5.8,5.7c0,3.9-3.6,7.1-9.1,12L24,32.6z"/>
	<path class="st122" d="M24,32.5l-1.5-1.4c-5.4-4.8-9-8-9-11.9c0-3.2,2.5-5.7,5.8-5.7c1.8,0,3.6,0.8,4.7,2.2
		c1.1-1.3,2.9-2.2,4.7-2.2c3.2,0,5.8,2.5,5.8,5.7c0,3.9-3.6,7.1-9,11.9L24,32.5z"/>
	<path class="st123" d="M24,32.4l-1.5-1.4c-5.4-4.8-8.9-7.9-8.9-11.8c0-3.2,2.5-5.6,5.8-5.6c1.8,0,3.6,0.8,4.7,2.1
		c1.1-1.3,2.9-2.1,4.7-2.1c3.2,0,5.8,2.5,5.8,5.6c0,3.9-3.6,7-8.9,11.8L24,32.4z"/>
	<path class="st124" d="M24,32.4L22.5,31c-5.3-4.8-8.9-7.9-8.9-11.7c0-3.1,2.5-5.6,5.7-5.6c1.8,0,3.5,0.8,4.7,2.1
		c1.1-1.3,2.9-2.1,4.7-2.1c3.2,0,5.7,2.5,5.7,5.6c0,3.8-3.5,7-8.9,11.8L24,32.4z"/>
	<path class="st125" d="M24,32.3L22.5,31c-5.3-4.7-8.8-7.8-8.8-11.7c0-3.1,2.5-5.6,5.7-5.6c1.8,0,3.5,0.8,4.6,2.1
		c1.1-1.3,2.8-2.1,4.6-2.1c3.2,0,5.7,2.4,5.7,5.6c0,3.8-3.5,6.9-8.8,11.7L24,32.3z"/>
	<path class="st126" d="M24,32.2l-1.5-1.3c-5.3-4.7-8.7-7.8-8.7-11.6c0-3.1,2.5-5.5,5.6-5.5c1.8,0,3.5,0.8,4.6,2.1
		c1.1-1.3,2.8-2.1,4.6-2.1c3.1,0,5.6,2.4,5.6,5.5c0,3.8-3.5,6.9-8.7,11.6L24,32.2z"/>
	<path class="st127" d="M24,32.1l-1.5-1.3c-5.2-4.6-8.7-7.7-8.7-11.5c0-3.1,2.5-5.5,5.6-5.5c1.8,0,3.5,0.8,4.6,2.1
		c1.1-1.3,2.8-2.1,4.6-2.1c3.1,0,5.6,2.4,5.6,5.5c0,3.8-3.5,6.8-8.7,11.5L24,32.1z"/>
	<path class="st128" d="M24,32.1l-1.5-1.3c-5.2-4.6-8.6-7.7-8.6-11.4c0-3,2.4-5.4,5.5-5.4c1.8,0,3.4,0.8,4.5,2.1
		c1.1-1.3,2.8-2.1,4.5-2.1c3.1,0,5.5,2.4,5.5,5.4c0,3.7-3.4,6.8-8.6,11.4L24,32.1z"/>
	<path class="st129" d="M24,32l-1.4-1.3c-5.1-4.6-8.5-7.6-8.5-11.3c0-3,2.4-5.4,5.5-5.4c1.7,0,3.4,0.8,4.5,2c1.1-1.3,2.8-2,4.5-2
		c3.1,0,5.5,2.4,5.5,5.4c0,3.7-3.4,6.7-8.5,11.3L24,32z"/>
	<path class="st130" d="M24,31.9l-1.4-1.3c-5.1-4.5-8.5-7.5-8.5-11.2c0-3,2.4-5.4,5.5-5.4c1.7,0,3.4,0.8,4.5,2c1.1-1.2,2.7-2,4.5-2
		c3.1,0,5.5,2.4,5.5,5.4c0,3.7-3.4,6.7-8.5,11.2L24,31.9z"/>
	<path class="st131" d="M24,31.8l-1.4-1.3c-5.1-4.5-8.4-7.5-8.4-11.1c0-3,2.4-5.3,5.4-5.3c1.7,0,3.4,0.8,4.4,2c1.1-1.2,2.7-2,4.4-2
		c3,0,5.4,2.3,5.4,5.3c0,3.6-3.3,6.6-8.4,11.1L24,31.8z"/>
	<path class="st132" d="M24,31.7l-1.4-1.3c-5-4.5-8.3-7.4-8.3-11c0-3,2.4-5.3,5.4-5.3c1.7,0,3.3,0.8,4.4,2c1.1-1.2,2.7-2,4.4-2
		c3,0,5.4,2.3,5.4,5.3c0,3.6-3.3,6.6-8.3,11.1L24,31.7z"/>
	<path class="st133" d="M24,31.7l-1.4-1.3c-5-4.4-8.3-7.4-8.3-11c0-2.9,2.3-5.2,5.3-5.2c1.7,0,3.3,0.8,4.4,2c1.1-1.2,2.7-2,4.4-2
		c3,0,5.3,2.3,5.3,5.2c0,3.6-3.3,6.5-8.3,11L24,31.7z"/>
	<path class="st134" d="M24,31.6l-1.4-1.2c-4.9-4.4-8.2-7.3-8.2-10.9c0-2.9,2.3-5.2,5.3-5.2c1.7,0,3.3,0.8,4.3,2c1-1.2,2.7-2,4.3-2
		c3,0,5.3,2.3,5.3,5.2c0,3.6-3.3,6.5-8.2,10.9L24,31.6z"/>
	<path class="st135" d="M24,31.5l-1.4-1.2c-4.9-4.4-8.2-7.2-8.2-10.8c0-2.9,2.3-5.1,5.2-5.1c1.7,0,3.3,0.8,4.3,2c1-1.2,2.6-2,4.3-2
		c2.9,0,5.2,2.3,5.2,5.1c0,3.5-3.2,6.4-8.2,10.8L24,31.5z"/>
	<path class="st136" d="M24,31.4l-1.4-1.2c-4.9-4.3-8.1-7.2-8.1-10.7c0-2.9,2.3-5.1,5.2-5.1c1.6,0,3.2,0.8,4.3,1.9
		c1-1.2,2.6-1.9,4.3-1.9c2.9,0,5.2,2.2,5.2,5.1c0,3.5-3.2,6.4-8.1,10.7L24,31.4z"/>
	<path class="st137" d="M24,31.4l-1.4-1.2c-4.8-4.3-8-7.1-8-10.6c0-2.8,2.3-5.1,5.2-5.1c1.6,0,3.2,0.7,4.2,1.9
		c1-1.2,2.6-1.9,4.2-1.9c2.9,0,5.2,2.2,5.2,5.1c0,3.5-3.2,6.3-8,10.6L24,31.4z"/>
	<path class="st138" d="M24,31.3l-1.3-1.2c-4.8-4.3-8-7.1-8-10.5c0-2.8,2.3-5,5.1-5c1.6,0,3.2,0.7,4.2,1.9c1-1.2,2.6-1.9,4.2-1.9
		c2.9,0,5.1,2.2,5.1,5c0,3.4-3.2,6.3-8,10.5L24,31.3z"/>
	<path class="st139" d="M24,31.2L22.7,30c-4.8-4.2-7.9-7-7.9-10.4c0-2.8,2.2-5,5.1-5c1.6,0,3.1,0.7,4.2,1.9c1-1.2,2.5-1.9,4.2-1.9
		c2.8,0,5.1,2.2,5.1,5c0,3.4-3.1,6.2-7.9,10.4L24,31.2z"/>
	<path class="st140" d="M24,31.1l-1.3-1.2c-4.7-4.2-7.8-7-7.8-10.3c0-2.8,2.2-4.9,5-4.9c1.6,0,3.1,0.7,4.1,1.9
		c1-1.1,2.5-1.9,4.1-1.9c2.8,0,5,2.2,5,4.9c0,3.4-3.1,6.2-7.8,10.4L24,31.1z"/>
	<path class="st141" d="M24,31.1l-1.3-1.2c-4.7-4.2-7.8-6.9-7.8-10.3c0-2.7,2.2-4.9,5-4.9c1.6,0,3.1,0.7,4.1,1.9
		c1-1.1,2.5-1.9,4.1-1.9c2.8,0,5,2.2,5,4.9c0,3.4-3.1,6.1-7.8,10.3L24,31.1z"/>
	<path class="st142" d="M24,31l-1.3-1.2C18.1,25.7,15,23,15,19.6c0-2.7,2.2-4.9,4.9-4.9c1.6,0,3.1,0.7,4,1.8c1-1.1,2.5-1.8,4-1.8
		c2.8,0,4.9,2.1,4.9,4.9c0,3.3-3.1,6.1-7.7,10.2L24,31z"/>
	<path class="st143" d="M24,30.9l-1.3-1.2c-4.6-4.1-7.6-6.8-7.6-10.1c0-2.7,2.2-4.8,4.9-4.8c1.6,0,3,0.7,4,1.8c1-1.1,2.5-1.8,4-1.8
		c2.7,0,4.9,2.1,4.9,4.8c0,3.3-3,6-7.6,10.1L24,30.9z"/>
	<path class="st144" d="M24,30.8l-1.3-1.1c-4.6-4.1-7.6-6.7-7.6-10c0-2.7,2.1-4.8,4.9-4.8c1.5,0,3,0.7,4,1.8c1-1.1,2.4-1.8,4-1.8
		c2.7,0,4.9,2.1,4.9,4.8c0,3.3-3,5.9-7.6,10L24,30.8z"/>
	<path class="st145" d="M24,30.7l-1.3-1.1c-4.5-4-7.5-6.7-7.5-9.9c0-2.6,2.1-4.7,4.8-4.7c1.5,0,3,0.7,3.9,1.8c1-1.1,2.4-1.8,3.9-1.8
		c2.7,0,4.8,2.1,4.8,4.7c0,3.2-3,5.9-7.5,9.9L24,30.7z"/>
	<path class="st146" d="M24,30.7l-1.3-1.1c-4.5-4-7.4-6.6-7.4-9.8c0-2.6,2.1-4.7,4.8-4.7c1.5,0,3,0.7,3.9,1.8
		c0.9-1.1,2.4-1.8,3.9-1.8c2.7,0,4.8,2.1,4.8,4.7c0,3.2-3,5.8-7.4,9.8L24,30.7z"/>
	<path class="st147" d="M24,30.6l-1.2-1.1c-4.4-3.9-7.4-6.5-7.4-9.7c0-2.6,2.1-4.6,4.7-4.6c1.5,0,2.9,0.7,3.9,1.8
		c0.9-1.1,2.4-1.8,3.9-1.8c2.7,0,4.7,2,4.7,4.6c0,3.2-2.9,5.8-7.4,9.7L24,30.6z"/>
	<path class="st148" d="M24,30.5l-1.2-1.1c-4.4-3.9-7.3-6.5-7.3-9.7c0-2.6,2.1-4.6,4.7-4.6c1.5,0,2.9,0.7,3.8,1.7
		c0.9-1.1,2.4-1.7,3.8-1.7c2.6,0,4.7,2,4.7,4.6c0,3.2-2.9,5.7-7.3,9.7L24,30.5z"/>
	<path class="st149" d="M24,30.4l-1.2-1.1c-4.4-3.9-7.2-6.4-7.2-9.6c0-2.6,2-4.6,4.7-4.6c1.5,0,2.9,0.7,3.8,1.7
		c0.9-1.1,2.3-1.7,3.8-1.7c2.6,0,4.7,2,4.7,4.6c0,3.1-2.9,5.7-7.2,9.6L24,30.4z"/>
	<path class="st150" d="M24,30.4l-1.2-1.1c-4.3-3.8-7.2-6.4-7.2-9.5c0-2.5,2-4.5,4.6-4.5c1.5,0,2.9,0.7,3.8,1.7
		c0.9-1.1,2.3-1.7,3.8-1.7c2.6,0,4.6,2,4.6,4.5c0,3.1-2.8,5.6-7.2,9.5L24,30.4z"/>
	<path class="st151" d="M24,30.3l-1.2-1.1c-4.3-3.8-7.1-6.3-7.1-9.4c0-2.5,2-4.5,4.6-4.5c1.4,0,2.8,0.7,3.7,1.7
		c0.9-1,2.3-1.7,3.7-1.7c2.6,0,4.6,2,4.6,4.5c0,3.1-2.8,5.6-7.1,9.4L24,30.3z"/>
	<path class="st152" d="M24,30.2l-1.2-1.1c-4.2-3.8-7-6.3-7-9.3c0-2.5,2-4.4,4.5-4.4c1.4,0,2.8,0.7,3.7,1.7c0.9-1,2.3-1.7,3.7-1.7
		c2.5,0,4.5,2,4.5,4.4c0,3-2.8,5.5-7,9.3L24,30.2z"/>
	<path class="st153" d="M24,30.1l-1.2-1.1c-4.2-3.7-7-6.2-7-9.2c0-2.5,2-4.4,4.5-4.4c1.4,0,2.8,0.6,3.7,1.7c0.9-1,2.2-1.7,3.7-1.7
		c2.5,0,4.5,1.9,4.5,4.4c0,3-2.8,5.5-7,9.2L24,30.1z"/>
	<path class="st154" d="M24,30l-1.2-1c-4.2-3.7-6.9-6.1-6.9-9.1c0-2.4,2-4.4,4.4-4.4c1.4,0,2.8,0.6,3.6,1.7c0.9-1,2.2-1.7,3.6-1.7
		c2.5,0,4.4,1.9,4.4,4.4c0,3-2.7,5.4-6.9,9.1L24,30z"/>
	<path class="st155" d="M24,30l-1.2-1c-4.1-3.7-6.8-6.1-6.8-9c0-2.4,1.9-4.3,4.4-4.3c1.4,0,2.7,0.6,3.6,1.6c0.9-1,2.2-1.6,3.6-1.6
		c2.5,0,4.4,1.9,4.4,4.3c0,3-2.7,5.4-6.8,9L24,30z"/>
	<path class="st156" d="M24,29.9l-1.1-1c-4.1-3.6-6.8-6-6.8-9c0-2.4,1.9-4.3,4.4-4.3c1.4,0,2.7,0.6,3.6,1.6c0.9-1,2.2-1.6,3.6-1.6
		c2.4,0,4.4,1.9,4.4,4.3c0,2.9-2.7,5.3-6.8,9L24,29.9z"/>
	<path class="st157" d="M24,29.8l-1.1-1c-4-3.6-6.7-6-6.7-8.9c0-2.4,1.9-4.2,4.3-4.2c1.4,0,2.7,0.6,3.5,1.6c0.9-1,2.2-1.6,3.5-1.6
		c2.4,0,4.3,1.9,4.3,4.2c0,2.9-2.7,5.3-6.7,8.9L24,29.8z"/>
	<path class="st158" d="M24,29.7l-1.1-1c-4-3.6-6.6-5.9-6.6-8.8c0-2.3,1.9-4.2,4.3-4.2c1.4,0,2.6,0.6,3.5,1.6c0.8-1,2.1-1.6,3.5-1.6
		c2.4,0,4.3,1.8,4.3,4.2c0,2.9-2.6,5.2-6.6,8.8L24,29.7z"/>
	<path class="st159" d="M24,29.7l-1.1-1c-4-3.5-6.6-5.8-6.6-8.7c0-2.3,1.9-4.1,4.2-4.1c1.3,0,2.6,0.6,3.5,1.6c0.8-1,2.1-1.6,3.5-1.6
		c2.4,0,4.2,1.8,4.2,4.1c0,2.9-2.6,5.2-6.6,8.7L24,29.7z"/>
	<path class="st160" d="M24,29.6l-1.1-1c-3.9-3.5-6.5-5.8-6.5-8.6c0-2.3,1.8-4.1,4.2-4.1c1.3,0,2.6,0.6,3.4,1.6
		c0.8-1,2.1-1.6,3.4-1.6c2.3,0,4.2,1.8,4.2,4.1c0,2.8-2.6,5.1-6.5,8.6L24,29.6z"/>
	<path class="st161" d="M24,29.5l-1.1-1c-3.9-3.5-6.4-5.7-6.4-8.5c0-2.3,1.8-4.1,4.1-4.1c1.3,0,2.6,0.6,3.4,1.5
		c0.8-0.9,2.1-1.5,3.4-1.5c2.3,0,4.1,1.8,4.1,4.1c0,2.8-2.6,5.1-6.4,8.5L24,29.5z"/>
	<path class="st162" d="M24,29.4l-1.1-1c-3.8-3.4-6.4-5.7-6.4-8.4c0-2.3,1.8-4,4.1-4c1.3,0,2.5,0.6,3.4,1.5c0.8-0.9,2.1-1.5,3.4-1.5
		c2.3,0,4.1,1.8,4.1,4c0,2.8-2.5,5-6.4,8.4L24,29.4z"/>
	<path class="st163" d="M24,29.4l-1.1-1c-3.8-3.4-6.3-5.6-6.3-8.3c0-2.2,1.8-4,4.1-4c1.3,0,2.5,0.6,3.3,1.5c0.8-0.9,2-1.5,3.3-1.5
		c2.3,0,4.1,1.8,4.1,4c0,2.7-2.5,5-6.3,8.4L24,29.4z"/>
	<path class="st164" d="M24,29.3l-1.1-0.9c-3.8-3.3-6.2-5.6-6.2-8.3c0-2.2,1.8-3.9,4-3.9c1.3,0,2.5,0.6,3.3,1.5
		c0.8-0.9,2-1.5,3.3-1.5c2.2,0,4,1.7,4,3.9c0,2.7-2.5,4.9-6.2,8.3L24,29.3z"/>
	<path class="st165" d="M24,29.2l-1-0.9c-3.7-3.3-6.2-5.5-6.2-8.2c0-2.2,1.7-3.9,4-3.9c1.3,0,2.5,0.6,3.3,1.5c0.8-0.9,2-1.5,3.3-1.5
		c2.2,0,4,1.7,4,3.9c0,2.7-2.5,4.9-6.2,8.2L24,29.2z"/>
	<path class="st166" d="M24,29.1l-1-0.9c-3.7-3.3-6.1-5.4-6.1-8.1c0-2.2,1.7-3.9,3.9-3.9c1.2,0,2.4,0.6,3.2,1.5
		c0.8-0.9,2-1.5,3.2-1.5c2.2,0,3.9,1.7,3.9,3.9c0,2.7-2.4,4.8-6.1,8.1L24,29.1z"/>
	<path class="st167" d="M24,29l-1-0.9c-3.6-3.2-6-5.4-6-8c0-2.1,1.7-3.8,3.9-3.8c1.2,0,2.4,0.6,3.2,1.4c0.8-0.9,2-1.4,3.2-1.4
		c2.2,0,3.9,1.7,3.9,3.8c0,2.6-2.4,4.8-6,8L24,29z"/>
	<path class="st168" d="M24,29l-1-0.9c-3.6-3.2-6-5.3-6-7.9c0-2.1,1.7-3.8,3.8-3.8c1.2,0,2.4,0.6,3.1,1.4c0.8-0.9,1.9-1.4,3.1-1.4
		c2.2,0,3.8,1.7,3.8,3.8c0,2.6-2.4,4.7-6,7.9L24,29z"/>
	<path class="st169" d="M24,28.9L23,28c-3.6-3.2-5.9-5.3-5.9-7.8c0-2.1,1.7-3.7,3.8-3.7c1.2,0,2.4,0.5,3.1,1.4
		c0.8-0.9,1.9-1.4,3.1-1.4c2.1,0,3.8,1.6,3.8,3.7c0,2.6-2.4,4.7-5.9,7.8L24,28.9z"/>
	<path class="st170" d="M24,28.8l-1-0.9c-3.5-3.1-5.8-5.2-5.8-7.7c0-2.1,1.7-3.7,3.8-3.7c1.2,0,2.3,0.5,3.1,1.4
		c0.7-0.9,1.9-1.4,3.1-1.4c2.1,0,3.8,1.6,3.8,3.7c0,2.5-2.3,4.6-5.8,7.7L24,28.8z"/>
	<path class="st171" d="M24,28.7l-1-0.9c-3.5-3.1-5.8-5.1-5.8-7.6c0-2,1.6-3.6,3.7-3.6c1.2,0,2.3,0.5,3,1.4c0.7-0.8,1.9-1.4,3-1.4
		c2.1,0,3.7,1.6,3.7,3.6c0,2.5-2.3,4.6-5.8,7.7L24,28.7z"/>
	<path class="st172" d="M24,28.7l-1-0.9c-3.4-3.1-5.7-5.1-5.7-7.6c0-2,1.6-3.6,3.7-3.6c1.2,0,2.3,0.5,3,1.4c0.7-0.8,1.8-1.4,3-1.4
		c2.1,0,3.7,1.6,3.7,3.6c0,2.5-2.3,4.5-5.7,7.6L24,28.7z"/>
	<path class="st173" d="M24,28.6l-1-0.9c-3.4-3-5.7-5-5.7-7.5c0-2,1.6-3.6,3.6-3.6c1.2,0,2.3,0.5,3,1.4c0.7-0.8,1.8-1.4,3-1.4
		c2,0,3.6,1.6,3.6,3.6c0,2.5-2.2,4.4-5.7,7.5L24,28.6z"/>
	<path class="st174" d="M24,28.5l-0.9-0.8c-3.4-3-5.6-5-5.6-7.4c0-2,1.6-3.5,3.6-3.5c1.1,0,2.2,0.5,2.9,1.3c0.7-0.8,1.8-1.3,2.9-1.3
		c2,0,3.6,1.6,3.6,3.5c0,2.4-2.2,4.4-5.6,7.4L24,28.5z"/>
	<path class="st175" d="M24,28.4l-0.9-0.8c-3.3-3-5.5-4.9-5.5-7.3c0-2,1.6-3.5,3.6-3.5c1.1,0,2.2,0.5,2.9,1.3
		c0.7-0.8,1.8-1.3,2.9-1.3c2,0,3.6,1.5,3.6,3.5c0,2.4-2.2,4.3-5.5,7.3L24,28.4z"/>
	<path class="st176" d="M24,28.4l-0.9-0.8c-3.3-2.9-5.5-4.8-5.5-7.2c0-1.9,1.5-3.4,3.5-3.4c1.1,0,2.2,0.5,2.9,1.3
		c0.7-0.8,1.8-1.3,2.9-1.3c2,0,3.5,1.5,3.5,3.4c0,2.4-2.2,4.3-5.5,7.2L24,28.4z"/>
	<path class="st177" d="M24,28.3l-0.9-0.8c-3.2-2.9-5.4-4.8-5.4-7.1c0-1.9,1.5-3.4,3.5-3.4c1.1,0,2.1,0.5,2.8,1.3
		c0.7-0.8,1.7-1.3,2.8-1.3c1.9,0,3.5,1.5,3.5,3.4c0,2.3-2.1,4.2-5.4,7.1L24,28.3z"/>
	<path class="st178" d="M24,28.2l-0.9-0.8c-3.2-2.9-5.3-4.7-5.3-7c0-1.9,1.5-3.4,3.4-3.4c1.1,0,2.1,0.5,2.8,1.3
		c0.7-0.8,1.7-1.3,2.8-1.3c1.9,0,3.4,1.5,3.4,3.4c0,2.3-2.1,4.2-5.3,7L24,28.2z"/>
	<path class="st179" d="M24,28.1l-0.9-0.8c-3.2-2.8-5.3-4.7-5.3-7c0-1.9,1.5-3.3,3.4-3.3c1.1,0,2.1,0.5,2.8,1.3
		c0.7-0.8,1.7-1.3,2.8-1.3c1.9,0,3.4,1.5,3.4,3.3c0,2.3-2.1,4.1-5.3,7L24,28.1z"/>
	<path class="st180" d="M24,28l-0.9-0.8c-3.1-2.8-5.2-4.6-5.2-6.9c0-1.8,1.5-3.3,3.3-3.3c1.1,0,2.1,0.5,2.7,1.2
		c0.7-0.8,1.7-1.2,2.7-1.2c1.9,0,3.3,1.4,3.3,3.3c0,2.3-2.1,4.1-5.2,6.9L24,28z"/>
	<path class="st181" d="M24,28l-0.9-0.8C20,24.4,18,22.6,18,20.4c0-1.8,1.5-3.2,3.3-3.2c1,0,2,0.5,2.7,1.2c0.7-0.8,1.7-1.2,2.7-1.2
		c1.8,0,3.3,1.4,3.3,3.2c0,2.2-2,4-5.1,6.8L24,28z"/>
	<path class="st182" d="M24,27.9l-0.9-0.8c-3-2.7-5.1-4.5-5.1-6.7c0-1.8,1.4-3.2,3.3-3.2c1,0,2,0.5,2.7,1.2c0.6-0.7,1.6-1.2,2.7-1.2
		c1.8,0,3.3,1.4,3.3,3.2c0,2.2-2,4-5.1,6.7L24,27.9z"/>
	<path class="st183" d="M24,27.8l-0.8-0.8c-3-2.7-5-4.4-5-6.6c0-1.8,1.4-3.2,3.2-3.2c1,0,2,0.5,2.6,1.2c0.6-0.7,1.6-1.2,2.6-1.2
		c1.8,0,3.2,1.4,3.2,3.2c0,2.2-2,3.9-5,6.6L24,27.8z"/>
	<path class="st184" d="M24,27.7L23.2,27c-3-2.6-4.9-4.4-4.9-6.5c0-1.7,1.4-3.1,3.2-3.1c1,0,2,0.5,2.6,1.2c0.6-0.7,1.6-1.2,2.6-1.2
		c1.8,0,3.2,1.4,3.2,3.1c0,2.1-2,3.9-4.9,6.5L24,27.7z"/>
	<path class="st185" d="M24,27.7l-0.8-0.7c-2.9-2.6-4.9-4.3-4.9-6.4c0-1.7,1.4-3.1,3.1-3.1c1,0,1.9,0.5,2.6,1.2
		c0.6-0.7,1.6-1.2,2.6-1.2c1.8,0,3.1,1.3,3.1,3.1c0,2.1-1.9,3.8-4.9,6.4L24,27.7z"/>
	<path class="st186" d="M24,27.6l-0.8-0.7c-2.9-2.6-4.8-4.3-4.8-6.3c0-1.7,1.4-3,3.1-3c1,0,1.9,0.4,2.5,1.1c0.6-0.7,1.5-1.1,2.5-1.1
		c1.7,0,3.1,1.3,3.1,3c0,2.1-1.9,3.8-4.8,6.3L24,27.6z"/>
	<path class="st187" d="M24,27.5l-0.8-0.7c-2.8-2.5-4.7-4.2-4.7-6.3c0-1.7,1.3-3,3-3c1,0,1.9,0.4,2.5,1.1c0.6-0.7,1.5-1.1,2.5-1.1
		c1.7,0,3,1.3,3,3c0,2.1-1.9,3.7-4.7,6.3L24,27.5z"/>
	<path class="st188" d="M24,27.4l-0.8-0.7c-2.8-2.5-4.7-4.1-4.7-6.2c0-1.6,1.3-2.9,3-2.9c0.9,0,1.9,0.4,2.5,1.1
		c0.6-0.7,1.5-1.1,2.5-1.1c1.7,0,3,1.3,3,2.9c0,2-1.9,3.7-4.7,6.2L24,27.4z"/>
	<path class="st189" d="M24,27.4l-0.8-0.7c-2.8-2.5-4.6-4.1-4.6-6.1c0-1.6,1.3-2.9,3-2.9c0.9,0,1.8,0.4,2.4,1.1
		c0.6-0.7,1.5-1.1,2.4-1.1c1.7,0,3,1.3,3,2.9c0,2-1.8,3.6-4.6,6.1L24,27.4z"/>
	<path class="st190" d="M24,27.3l-0.8-0.7c-2.7-2.4-4.5-4-4.5-6c0-1.6,1.3-2.9,2.9-2.9c0.9,0,1.8,0.4,2.4,1.1
		c0.6-0.7,1.5-1.1,2.4-1.1c1.6,0,2.9,1.3,2.9,2.9c0,2-1.8,3.6-4.5,6L24,27.3z"/>
	<path class="st191" d="M24,27.2l-0.8-0.7c-2.7-2.4-4.5-4-4.5-5.9c0-1.6,1.3-2.8,2.9-2.8c0.9,0,1.8,0.4,2.4,1.1
		c0.6-0.7,1.4-1.1,2.4-1.1c1.6,0,2.9,1.2,2.9,2.8c0,1.9-1.8,3.5-4.5,5.9L24,27.2z"/>
	<path class="st192" d="M24,27.1l-0.7-0.7c-2.7-2.4-4.4-3.9-4.4-5.8c0-1.6,1.2-2.8,2.8-2.8c0.9,0,1.8,0.4,2.3,1.1
		c0.6-0.6,1.4-1.1,2.3-1.1c1.6,0,2.8,1.2,2.8,2.8c0,1.9-1.8,3.5-4.4,5.8L24,27.1z"/>
	<path class="st193" d="M24,27l-0.7-0.7c-2.6-2.3-4.3-3.9-4.3-5.7c0-1.5,1.2-2.7,2.8-2.7c0.9,0,1.7,0.4,2.3,1c0.6-0.6,1.4-1,2.3-1
		c1.6,0,2.8,1.2,2.8,2.7c0,1.9-1.7,3.4-4.3,5.7L24,27z"/>
	<path class="st194" d="M24,27l-0.7-0.6C20.7,24,19,22.5,19,20.7c0-1.5,1.2-2.7,2.7-2.7c0.9,0,1.7,0.4,2.2,1c0.5-0.6,1.4-1,2.2-1
		c1.5,0,2.7,1.2,2.7,2.7c0,1.9-1.7,3.4-4.3,5.7L24,27z"/>
	<path class="st195" d="M24,26.9l-0.7-0.6c-2.5-2.3-4.2-3.7-4.2-5.6c0-1.5,1.2-2.7,2.7-2.7c0.9,0,1.7,0.4,2.2,1c0.5-0.6,1.4-1,2.2-1
		c1.5,0,2.7,1.2,2.7,2.7c0,1.8-1.7,3.3-4.2,5.6L24,26.9z"/>
	<path class="st196" d="M24,26.8l-0.7-0.6c-2.5-2.2-4.1-3.7-4.1-5.5c0-1.5,1.2-2.6,2.7-2.6c0.8,0,1.7,0.4,2.2,1c0.5-0.6,1.3-1,2.2-1
		c1.5,0,2.7,1.1,2.7,2.6c0,1.8-1.6,3.3-4.1,5.5L24,26.8z"/>
	<path class="st197" d="M24,26.7l-0.7-0.6c-2.5-2.2-4.1-3.6-4.1-5.4c0-1.4,1.2-2.6,2.6-2.6c0.8,0,1.6,0.4,2.1,1c0.5-0.6,1.3-1,2.1-1
		c1.5,0,2.6,1.1,2.6,2.6c0,1.8-1.6,3.2-4.1,5.4L24,26.7z"/>
	<path class="st198" d="M24,26.7L23.3,26c-2.4-2.1-4-3.6-4-5.3c0-1.4,1.1-2.5,2.6-2.5c0.8,0,1.6,0.4,2.1,1c0.5-0.6,1.3-1,2.1-1
		c1.4,0,2.6,1.1,2.6,2.5c0,1.7-1.6,3.2-4,5.3L24,26.7z"/>
	<path class="st199" d="M24,26.6L23.3,26c-2.4-2.1-3.9-3.5-3.9-5.2c0-1.4,1.1-2.5,2.5-2.5c0.8,0,1.6,0.4,2.1,0.9
		c0.5-0.6,1.3-0.9,2.1-0.9c1.4,0,2.5,1.1,2.5,2.5c0,1.7-1.6,3.1-3.9,5.2L24,26.6z"/>
	<path class="st200" d="M24,26.5l-0.7-0.6c-2.3-2.1-3.9-3.4-3.9-5.1c0-1.4,1.1-2.4,2.5-2.4c0.8,0,1.5,0.4,2,0.9
		c0.5-0.6,1.3-0.9,2-0.9c1.4,0,2.5,1.1,2.5,2.4c0,1.7-1.5,3-3.9,5.1L24,26.5z"/>
	<path class="st201" d="M24,26.4l-0.6-0.6c-2.3-2-3.8-3.4-3.8-5c0-1.3,1.1-2.4,2.5-2.4c0.8,0,1.5,0.4,2,0.9c0.5-0.6,1.2-0.9,2-0.9
		c1.4,0,2.5,1.1,2.5,2.4c0,1.7-1.5,3-3.8,5L24,26.4z"/>
	<path class="st202" d="M24,26.3l-0.6-0.6c-2.3-2-3.7-3.3-3.7-5c0-1.3,1.1-2.4,2.4-2.4c0.8,0,1.5,0.3,2,0.9c0.5-0.5,1.2-0.9,2-0.9
		c1.3,0,2.4,1,2.4,2.4c0,1.6-1.5,2.9-3.7,5L24,26.3z"/>
	<path class="st203" d="M24,26.3l-0.6-0.6c-2.2-2-3.7-3.3-3.7-4.9c0-1.3,1-2.3,2.4-2.3c0.7,0,1.5,0.3,1.9,0.9
		c0.5-0.5,1.2-0.9,1.9-0.9c1.3,0,2.4,1,2.4,2.3c0,1.6-1.5,2.9-3.7,4.9L24,26.3z"/>
	<path class="st204" d="M24,26.2l-0.6-0.5c-2.2-1.9-3.6-3.2-3.6-4.8c0-1.3,1-2.3,2.3-2.3c0.7,0,1.4,0.3,1.9,0.9
		c0.5-0.5,1.2-0.9,1.9-0.9c1.3,0,2.3,1,2.3,2.3c0,1.6-1.4,2.8-3.6,4.8L24,26.2z"/>
	<path class="st205" d="M24,26.1l-0.6-0.5c-2.1-1.9-3.5-3.2-3.5-4.7c0-1.3,1-2.2,2.3-2.2c0.7,0,1.4,0.3,1.9,0.9
		c0.5-0.5,1.1-0.9,1.9-0.9c1.3,0,2.3,1,2.3,2.2c0,1.5-1.4,2.8-3.5,4.7L24,26.1z"/>
	<path class="st206" d="M24,26l-0.6-0.5c-2.1-1.9-3.5-3.1-3.5-4.6c0-1.2,1-2.2,2.2-2.2c0.7,0,1.4,0.3,1.8,0.8
		c0.4-0.5,1.1-0.8,1.8-0.8c1.3,0,2.2,1,2.2,2.2c0,1.5-1.4,2.7-3.5,4.6L24,26z"/>
	<path class="st207" d="M24,26l-0.6-0.5c-2.1-1.8-3.4-3-3.4-4.5c0-1.2,1-2.2,2.2-2.2c0.7,0,1.4,0.3,1.8,0.8c0.4-0.5,1.1-0.8,1.8-0.8
		c1.2,0,2.2,0.9,2.2,2.2c0,1.5-1.4,2.7-3.4,4.5L24,26z"/>
	<path class="st208" d="M24,25.9l-0.6-0.5c-2-1.8-3.3-3-3.3-4.4c0-1.2,0.9-2.1,2.2-2.1c0.7,0,1.3,0.3,1.8,0.8
		c0.4-0.5,1.1-0.8,1.8-0.8c1.2,0,2.2,0.9,2.2,2.1c0,1.5-1.3,2.6-3.3,4.4L24,25.9z"/>
	<path class="st209" d="M24,25.8l-0.6-0.5c-2-1.8-3.3-2.9-3.3-4.3c0-1.2,0.9-2.1,2.1-2.1c0.7,0,1.3,0.3,1.7,0.8
		c0.4-0.5,1.1-0.8,1.7-0.8c1.2,0,2.1,0.9,2.1,2.1c0,1.4-1.3,2.6-3.3,4.3L24,25.8z"/>
	<path class="st210" d="M24,25.7l-0.5-0.5c-1.9-1.7-3.2-2.9-3.2-4.3c0-1.1,0.9-2,2.1-2c0.7,0,1.3,0.3,1.7,0.8c0.4-0.5,1-0.8,1.7-0.8
		c1.2,0,2.1,0.9,2.1,2c0,1.4-1.3,2.5-3.2,4.3L24,25.7z"/>
	<path class="st211" d="M24,25.7l-0.5-0.5c-1.9-1.7-3.2-2.8-3.2-4.2c0-1.1,0.9-2,2-2c0.6,0,1.3,0.3,1.7,0.8c0.4-0.5,1-0.8,1.7-0.8
		c1.1,0,2,0.9,2,2c0,1.4-1.3,2.5-3.2,4.2L24,25.7z"/>
	<path class="st212" d="M24,25.6l-0.5-0.5c-1.9-1.7-3.1-2.7-3.1-4.1c0-1.1,0.9-1.9,2-1.9c0.6,0,1.2,0.3,1.6,0.7
		c0.4-0.5,1-0.7,1.6-0.7c1.1,0,2,0.9,2,1.9c0,1.3-1.2,2.4-3.1,4.1L24,25.6z"/>
	<path class="st213" d="M24,25.5L23.5,25c-1.8-1.6-3-2.7-3-4c0-1.1,0.9-1.9,1.9-1.9c0.6,0,1.2,0.3,1.6,0.7c0.4-0.4,1-0.7,1.6-0.7
		c1.1,0,1.9,0.8,1.9,1.9c0,1.3-1.2,2.4-3,4L24,25.5z"/>
	<path class="st214" d="M24,25.4L23.5,25c-1.8-1.6-3-2.6-3-3.9c0-1,0.8-1.9,1.9-1.9c0.6,0,1.2,0.3,1.6,0.7c0.4-0.4,1-0.7,1.6-0.7
		c1.1,0,1.9,0.8,1.9,1.9c0,1.3-1.2,2.3-3,3.9L24,25.4z"/>
	<path class="st215" d="M24,25.3l-0.5-0.4c-1.7-1.5-2.9-2.6-2.9-3.8c0-1,0.8-1.8,1.9-1.8c0.6,0,1.2,0.3,1.5,0.7
		c0.4-0.4,0.9-0.7,1.5-0.7c1,0,1.9,0.8,1.9,1.8c0,1.3-1.1,2.3-2.9,3.8L24,25.3z"/>
	<path class="st216" d="M24,25.3l-0.5-0.4c-1.7-1.5-2.8-2.5-2.8-3.7c0-1,0.8-1.8,1.8-1.8c0.6,0,1.1,0.3,1.5,0.7
		c0.4-0.4,0.9-0.7,1.5-0.7c1,0,1.8,0.8,1.8,1.8c0,1.2-1.1,2.2-2.8,3.7L24,25.3z"/>
	<path class="st217" d="M24,25.2l-0.5-0.4c-1.7-1.5-2.8-2.5-2.8-3.6c0-1,0.8-1.7,1.8-1.7c0.6,0,1.1,0.3,1.5,0.7
		c0.4-0.4,0.9-0.7,1.5-0.7c1,0,1.8,0.8,1.8,1.7c0,1.2-1.1,2.2-2.8,3.6L24,25.2z"/>
	<path class="st218" d="M24,25.1l-0.5-0.4c-1.6-1.4-2.7-2.4-2.7-3.6c0-1,0.8-1.7,1.7-1.7c0.5,0,1.1,0.2,1.4,0.6
		c0.3-0.4,0.9-0.6,1.4-0.6c1,0,1.7,0.7,1.7,1.7c0,1.2-1.1,2.1-2.7,3.6L24,25.1z"/>
	<path class="st219" d="M24,25l-0.4-0.4c-1.6-1.4-2.6-2.3-2.6-3.5c0-0.9,0.7-1.7,1.7-1.7c0.5,0,1,0.2,1.4,0.6
		c0.3-0.4,0.8-0.6,1.4-0.6c0.9,0,1.7,0.7,1.7,1.7c0,1.1-1,2.1-2.6,3.5L24,25z"/>
	<path class="st220" d="M24,25l-0.4-0.4C22,23.2,21,22.3,21,21.2c0-0.9,0.7-1.6,1.6-1.6c0.5,0,1,0.2,1.3,0.6
		c0.3-0.4,0.8-0.6,1.3-0.6c0.9,0,1.6,0.7,1.6,1.6c0,1.1-1,2-2.6,3.4L24,25z"/>
	<path class="st221" d="M24,24.9l-0.4-0.4c-1.5-1.3-2.5-2.2-2.5-3.3c0-0.9,0.7-1.6,1.6-1.6c0.5,0,1,0.2,1.3,0.6
		c0.3-0.4,0.8-0.6,1.3-0.6c0.9,0,1.6,0.7,1.6,1.6c0,1.1-1,2-2.5,3.3L24,24.9z"/>
	<path class="st222" d="M24,24.8l-0.4-0.4c-1.5-1.3-2.4-2.2-2.4-3.2c0-0.9,0.7-1.5,1.6-1.5c0.5,0,1,0.2,1.3,0.6
		c0.3-0.4,0.8-0.6,1.3-0.6c0.9,0,1.6,0.7,1.6,1.5c0,1.1-1,1.9-2.4,3.2L24,24.8z"/>
	<path class="st223" d="M24,24.7l-0.4-0.4c-1.4-1.3-2.4-2.1-2.4-3.1c0-0.8,0.7-1.5,1.5-1.5c0.5,0,0.9,0.2,1.2,0.6
		c0.3-0.3,0.8-0.6,1.2-0.6c0.9,0,1.5,0.7,1.5,1.5c0,1-0.9,1.9-2.4,3.1L24,24.7z"/>
	<path class="st224" d="M24,24.7l-0.4-0.3c-1.4-1.2-2.3-2-2.3-3c0-0.8,0.6-1.4,1.5-1.4c0.5,0,0.9,0.2,1.2,0.6
		c0.3-0.3,0.7-0.6,1.2-0.6c0.8,0,1.5,0.6,1.5,1.4c0,1-0.9,1.8-2.3,3L24,24.7z"/>
	<path class="st225" d="M24,24.6l-0.4-0.3c-1.3-1.2-2.2-2-2.2-2.9c0-0.8,0.6-1.4,1.4-1.4c0.5,0,0.9,0.2,1.2,0.5
		c0.3-0.3,0.7-0.5,1.2-0.5c0.8,0,1.4,0.6,1.4,1.4c0,1-0.9,1.8-2.2,3L24,24.6z"/>
	<path class="st226" d="M24,24.5l-0.4-0.3c-1.3-1.2-2.2-1.9-2.2-2.9c0-0.8,0.6-1.4,1.4-1.4c0.4,0,0.9,0.2,1.1,0.5
		c0.3-0.3,0.7-0.5,1.1-0.5c0.8,0,1.4,0.6,1.4,1.4c0,0.9-0.9,1.7-2.2,2.9L24,24.5z"/>
	<path class="st227" d="M24,24.4l-0.4-0.3c-1.3-1.1-2.1-1.9-2.1-2.8c0-0.7,0.6-1.3,1.3-1.3c0.4,0,0.8,0.2,1.1,0.5
		c0.3-0.3,0.7-0.5,1.1-0.5c0.8,0,1.3,0.6,1.3,1.3c0,0.9-0.8,1.7-2.1,2.8L24,24.4z"/>
	<path class="st228" d="M24,24.3L23.7,24c-1.2-1.1-2-1.8-2-2.7c0-0.7,0.6-1.3,1.3-1.3c0.4,0,0.8,0.2,1.1,0.5
		c0.3-0.3,0.7-0.5,1.1-0.5c0.7,0,1.3,0.6,1.3,1.3c0,0.9-0.8,1.6-2,2.7L24,24.3z"/>
	<path class="st229" d="M24,24.3L23.7,24c-1.2-1.1-2-1.7-2-2.6c0-0.7,0.6-1.2,1.3-1.2c0.4,0,0.8,0.2,1,0.5c0.3-0.3,0.6-0.5,1-0.5
		c0.7,0,1.3,0.5,1.3,1.2c0,0.9-0.8,1.5-2,2.6L24,24.3z"/>
	<path class="st230" d="M24,24.2l-0.3-0.3c-1.1-1-1.9-1.7-1.9-2.5c0-0.7,0.5-1.2,1.2-1.2c0.4,0,0.8,0.2,1,0.5c0.2-0.3,0.6-0.5,1-0.5
		c0.7,0,1.2,0.5,1.2,1.2c0,0.8-0.8,1.5-1.9,2.5L24,24.2z"/>
	<path class="st231" d="M24,24.1l-0.3-0.3c-1.1-1-1.8-1.6-1.8-2.4c0-0.6,0.5-1.2,1.2-1.2c0.4,0,0.7,0.2,1,0.4c0.2-0.3,0.6-0.4,1-0.4
		c0.7,0,1.2,0.5,1.2,1.2c0,0.8-0.7,1.4-1.8,2.4L24,24.1z"/>
	<path class="st232" d="M24,24l-0.3-0.3c-1.1-0.9-1.8-1.6-1.8-2.3c0-0.6,0.5-1.1,1.1-1.1c0.4,0,0.7,0.2,0.9,0.4
		c0.2-0.3,0.6-0.4,0.9-0.4c0.6,0,1.1,0.5,1.1,1.1c0,0.8-0.7,1.4-1.8,2.3L24,24z"/>
	<path class="st233" d="M24,24l-0.3-0.3c-1-0.9-1.7-1.5-1.7-2.3c0-0.6,0.5-1.1,1.1-1.1c0.3,0,0.7,0.2,0.9,0.4
		c0.2-0.3,0.5-0.4,0.9-0.4c0.6,0,1.1,0.5,1.1,1.1c0,0.7-0.7,1.3-1.7,2.3L24,24z"/>
	<path class="st234" d="M24,23.9l-0.3-0.2c-1-0.9-1.6-1.5-1.6-2.2c0-0.6,0.5-1,1.1-1c0.3,0,0.7,0.2,0.9,0.4c0.2-0.2,0.5-0.4,0.9-0.4
		c0.6,0,1.1,0.5,1.1,1c0,0.7-0.7,1.3-1.6,2.2L24,23.9z"/>
	<path class="st235" d="M24,23.8l-0.3-0.2c-0.9-0.8-1.6-1.4-1.6-2.1c0-0.6,0.4-1,1-1c0.3,0,0.6,0.1,0.8,0.4c0.2-0.2,0.5-0.4,0.8-0.4
		c0.6,0,1,0.4,1,1c0,0.7-0.6,1.2-1.6,2.1L24,23.8z"/>
	<path class="st236" d="M24,23.7l-0.3-0.2c-0.9-0.8-1.5-1.3-1.5-2c0-0.5,0.4-1,1-1c0.3,0,0.6,0.1,0.8,0.4c0.2-0.2,0.5-0.4,0.8-0.4
		c0.5,0,1,0.4,1,1c0,0.7-0.6,1.2-1.5,2L24,23.7z"/>
	<path class="st237" d="M24,23.6l-0.2-0.2c-0.9-0.8-1.4-1.3-1.4-1.9c0-0.5,0.4-0.9,0.9-0.9c0.3,0,0.6,0.1,0.8,0.3
		c0.2-0.2,0.5-0.3,0.8-0.3c0.5,0,0.9,0.4,0.9,0.9c0,0.6-0.6,1.1-1.4,1.9L24,23.6z"/>
	<path class="st238" d="M24,23.6l-0.2-0.2c-0.8-0.7-1.4-1.2-1.4-1.8c0-0.5,0.4-0.9,0.9-0.9c0.3,0,0.5,0.1,0.7,0.3
		c0.2-0.2,0.4-0.3,0.7-0.3c0.5,0,0.9,0.4,0.9,0.9c0,0.6-0.5,1.1-1.4,1.8L24,23.6z"/>
	<path class="st239" d="M24,23.5l-0.2-0.2c-0.8-0.7-1.3-1.2-1.3-1.7c0-0.5,0.4-0.8,0.8-0.8c0.3,0,0.5,0.1,0.7,0.3
		c0.2-0.2,0.4-0.3,0.7-0.3c0.5,0,0.8,0.4,0.8,0.8c0,0.6-0.5,1-1.3,1.7L24,23.5z"/>
	<path class="st240" d="M24,23.4l-0.2-0.2c-0.7-0.7-1.2-1.1-1.2-1.6c0-0.4,0.4-0.8,0.8-0.8c0.3,0,0.5,0.1,0.7,0.3
		c0.2-0.2,0.4-0.3,0.7-0.3c0.4,0,0.8,0.3,0.8,0.8c0,0.5-0.5,1-1.2,1.6L24,23.4z"/>
	<path class="st241" d="M24,23.3l-0.2-0.2c-0.7-0.6-1.2-1-1.2-1.6c0-0.4,0.3-0.7,0.8-0.7c0.2,0,0.5,0.1,0.6,0.3
		c0.2-0.2,0.4-0.3,0.6-0.3c0.4,0,0.8,0.3,0.8,0.7c0,0.5-0.5,0.9-1.2,1.6L24,23.3z"/>
	<path class="st242" d="M24,23.3l-0.2-0.2c-0.7-0.6-1.1-1-1.1-1.5c0-0.4,0.3-0.7,0.7-0.7c0.2,0,0.4,0.1,0.6,0.3
		c0.1-0.2,0.4-0.3,0.6-0.3c0.4,0,0.7,0.3,0.7,0.7c0,0.5-0.4,0.9-1.1,1.5L24,23.3z"/>
	<path class="st243" d="M24,23.2L23.8,23c-0.6-0.6-1-0.9-1-1.4c0-0.4,0.3-0.7,0.7-0.7c0.2,0,0.4,0.1,0.6,0.3
		c0.1-0.2,0.3-0.3,0.6-0.3c0.4,0,0.7,0.3,0.7,0.7c0,0.5-0.4,0.8-1,1.4L24,23.2z"/>
	<path class="st244" d="M24,23.1L23.8,23c-0.6-0.5-1-0.9-1-1.3c0-0.3,0.3-0.6,0.6-0.6c0.2,0,0.4,0.1,0.5,0.2
		c0.1-0.1,0.3-0.2,0.5-0.2c0.4,0,0.6,0.3,0.6,0.6c0,0.4-0.4,0.8-1,1.3L24,23.1z"/>
	<path class="st245" d="M24,23l-0.2-0.1c-0.6-0.5-0.9-0.8-0.9-1.2c0-0.3,0.3-0.6,0.6-0.6c0.2,0,0.4,0.1,0.5,0.2
		c0.1-0.1,0.3-0.2,0.5-0.2c0.3,0,0.6,0.3,0.6,0.6c0,0.4-0.4,0.7-0.9,1.2L24,23z"/>
	<path class="st246" d="M24,23l-0.1-0.1c-0.5-0.5-0.8-0.8-0.8-1.1c0-0.3,0.2-0.5,0.5-0.5c0.2,0,0.3,0.1,0.4,0.2
		c0.1-0.1,0.3-0.2,0.4-0.2c0.3,0,0.5,0.2,0.5,0.5c0,0.4-0.3,0.7-0.8,1.1L24,23z"/>
	<path class="st247" d="M24,22.9l-0.1-0.1c-0.5-0.4-0.8-0.7-0.8-1c0-0.3,0.2-0.5,0.5-0.5c0.2,0,0.3,0.1,0.4,0.2
		c0.1-0.1,0.3-0.2,0.4-0.2c0.3,0,0.5,0.2,0.5,0.5c0,0.3-0.3,0.6-0.8,1L24,22.9z"/>
	<path class="st248" d="M24,22.8l-0.1-0.1c-0.4-0.4-0.7-0.6-0.7-0.9c0-0.3,0.2-0.5,0.5-0.5c0.1,0,0.3,0.1,0.4,0.2
		c0.1-0.1,0.2-0.2,0.4-0.2c0.3,0,0.5,0.2,0.5,0.5c0,0.3-0.3,0.6-0.7,0.9L24,22.8z"/>
	<path class="st249" d="M24,22.7l-0.1-0.1c-0.4-0.3-0.7-0.6-0.7-0.9c0-0.2,0.2-0.4,0.4-0.4c0.1,0,0.3,0.1,0.3,0.2
		c0.1-0.1,0.2-0.2,0.3-0.2c0.2,0,0.4,0.2,0.4,0.4c0,0.3-0.3,0.5-0.7,0.9L24,22.7z"/>
	<path class="st250" d="M24,22.6L24,22.6c-0.5-0.4-0.7-0.6-0.7-0.9c0-0.2,0.2-0.4,0.4-0.4c0.1,0,0.2,0.1,0.3,0.1
		c0.1-0.1,0.2-0.1,0.3-0.1c0.2,0,0.4,0.2,0.4,0.4C24.7,22,24.5,22.2,24,22.6L24,22.6z"/>
	<path class="st251" d="M24,22.6L24,22.6c-0.4-0.4-0.6-0.5-0.6-0.8c0-0.2,0.1-0.3,0.3-0.3c0.1,0,0.2,0,0.3,0.1
		c0.1-0.1,0.2-0.1,0.3-0.1c0.2,0,0.3,0.1,0.3,0.3C24.6,22,24.4,22.2,24,22.6L24,22.6z"/>
	<path class="st252" d="M24,22.5L24,22.5c-0.3-0.3-0.5-0.5-0.5-0.7c0-0.2,0.1-0.3,0.3-0.3c0.1,0,0.2,0,0.2,0.1
		c0.1-0.1,0.1-0.1,0.2-0.1c0.2,0,0.3,0.1,0.3,0.3C24.5,22,24.3,22.2,24,22.5L24,22.5z"/>
	<path class="st253" d="M24,22.4L24,22.4c-0.3-0.3-0.5-0.4-0.5-0.6c0-0.1,0.1-0.2,0.2-0.2c0.1,0,0.2,0,0.2,0.1
		c0-0.1,0.1-0.1,0.2-0.1c0.1,0,0.2,0.1,0.2,0.2C24.5,22,24.3,22.1,24,22.4L24,22.4z"/>
	<path class="st254" d="M24,22.3L24,22.3c-0.2-0.2-0.4-0.3-0.4-0.5c0-0.1,0.1-0.2,0.2-0.2c0.1,0,0.1,0,0.2,0.1c0,0,0.1-0.1,0.2-0.1
		c0.1,0,0.2,0.1,0.2,0.2C24.4,22,24.2,22.1,24,22.3L24,22.3z"/>
</g>
</svg>
