<?xml version="1.0" encoding="utf-8"?>
<!-- Generator: Adobe Illustrator 24.1.2, SVG Export Plug-In . SVG Version: 6.00 Build 0)  -->
<svg version="1.1" id="レイヤー_1" xmlns="http://www.w3.org/2000/svg" xmlns:xlink="http://www.w3.org/1999/xlink" x="0px"
	 y="0px" viewBox="0 0 48 48" style="enable-background:new 0 0 48 48;" xml:space="preserve">
<style type="text/css">
	.st0{fill:#010101;}
	.st1{fill:#020202;}
	.st2{fill:#030303;}
	.st3{fill:#040404;}
	.st4{fill:#050505;}
	.st5{fill:#060606;}
	.st6{fill:#070707;}
	.st7{fill:#080808;}
	.st8{fill:#090909;}
	.st9{fill:#0A0A0A;}
	.st10{fill:#0B0B0B;}
	.st11{fill:#0C0C0C;}
	.st12{fill:#0D0D0D;}
	.st13{fill:#0E0E0E;}
	.st14{fill:#0F0F0F;}
	.st15{fill:#101010;}
	.st16{fill:#111111;}
	.st17{fill:#121212;}
	.st18{fill:#131313;}
	.st19{fill:#141414;}
	.st20{fill:#151515;}
	.st21{fill:#161616;}
	.st22{fill:#171717;}
	.st23{fill:#181818;}
	.st24{fill:#191919;}
	.st25{fill:#1A1A1A;}
	.st26{fill:#1B1B1B;}
	.st27{fill:#1C1C1C;}
	.st28{fill:#1D1D1D;}
	.st29{fill:#1E1E1E;}
	.st30{fill:#1F1F1F;}
	.st31{fill:#202020;}
	.st32{fill:#212121;}
	.st33{fill:#222222;}
	.st34{fill:#232323;}
	.st35{fill:#242424;}
	.st36{fill:#252525;}
	.st37{fill:#262626;}
	.st38{fill:#272727;}
	.st39{fill:#282828;}
	.st40{fill:#292929;}
	.st41{fill:#2A2A2A;}
	.st42{fill:#2B2B2B;}
	.st43{fill:#2C2C2C;}
	.st44{fill:#2D2D2D;}
	.st45{fill:#2E2E2E;}
	.st46{fill:#2F2F2F;}
	.st47{fill:#303030;}
	.st48{fill:#313131;}
	.st49{fill:#323232;}
	.st50{fill:#333333;}
	.st51{fill:#343434;}
	.st52{fill:#353535;}
	.st53{fill:#363636;}
	.st54{fill:#373737;}
	.st55{fill:#383838;}
	.st56{fill:#393939;}
	.st57{fill:#3A3A3A;}
	.st58{fill:#3B3B3B;}
	.st59{fill:#3C3C3C;}
	.st60{fill:#3D3D3D;}
	.st61{fill:#3E3E3E;}
	.st62{fill:#3F3F3F;}
	.st63{fill:#404040;}
	.st64{fill:#414141;}
	.st65{fill:#424242;}
	.st66{fill:#434343;}
	.st67{fill:#444444;}
	.st68{fill:#454545;}
	.st69{fill:#464646;}
	.st70{fill:#474747;}
	.st71{fill:#484848;}
	.st72{fill:#494949;}
	.st73{fill:#4A4A4A;}
	.st74{fill:#4B4B4B;}
	.st75{fill:#4C4C4C;}
	.st76{fill:#4D4D4D;}
	.st77{fill:#4E4E4E;}
	.st78{fill:#4F4F4F;}
	.st79{fill:#505050;}
	.st80{fill:#515151;}
	.st81{fill:#525252;}
	.st82{fill:#535353;}
	.st83{fill:#545454;}
	.st84{fill:#555555;}
	.st85{fill:#565656;}
	.st86{fill:#575757;}
	.st87{fill:#585858;}
	.st88{fill:#595959;}
	.st89{fill:#5A5A5A;}
	.st90{fill:#5B5B5B;}
	.st91{fill:#5C5C5C;}
	.st92{fill:#5D5D5D;}
	.st93{fill:#5E5E5E;}
	.st94{fill:#5F5F5F;}
	.st95{fill:#606060;}
	.st96{fill:#616161;}
	.st97{fill:#626262;}
	.st98{fill:#636363;}
	.st99{fill:#646464;}
	.st100{fill:#656565;}
	.st101{fill:#666666;}
	.st102{fill:#676767;}
	.st103{fill:#686868;}
	.st104{fill:#696969;}
	.st105{fill:#6A6A6A;}
	.st106{fill:#6B6B6B;}
	.st107{fill:#6C6C6C;}
	.st108{fill:#6D6D6D;}
	.st109{fill:#6E6E6E;}
	.st110{fill:#6F6F6F;}
	.st111{fill:#707070;}
	.st112{fill:#717171;}
	.st113{fill:#727272;}
	.st114{fill:#737373;}
	.st115{fill:#747474;}
	.st116{fill:#757575;}
	.st117{fill:#767676;}
	.st118{fill:#777777;}
	.st119{fill:#787878;}
	.st120{fill:#797979;}
	.st121{fill:#7A7A7A;}
	.st122{fill:#7B7B7B;}
	.st123{fill:#7C7C7C;}
	.st124{fill:#7D7D7D;}
	.st125{fill:#7E7E7E;}
	.st126{fill:#7F7F7F;}
	.st127{fill:#808080;}
	.st128{fill:#818181;}
	.st129{fill:#828282;}
	.st130{fill:#838383;}
	.st131{fill:#848484;}
	.st132{fill:#858585;}
	.st133{fill:#868686;}
	.st134{fill:#878787;}
	.st135{fill:#888888;}
	.st136{fill:#898989;}
	.st137{fill:#8A8A8A;}
	.st138{fill:#8B8B8B;}
	.st139{fill:#8C8C8C;}
	.st140{fill:#8D8D8D;}
	.st141{fill:#8E8E8E;}
	.st142{fill:#8F8F8F;}
	.st143{fill:#909090;}
	.st144{fill:#919191;}
	.st145{fill:#929292;}
	.st146{fill:#939393;}
	.st147{fill:#949494;}
	.st148{fill:#959595;}
	.st149{fill:#969696;}
	.st150{fill:#979797;}
	.st151{fill:#989898;}
	.st152{fill:#999999;}
	.st153{fill:#9A9A9A;}
	.st154{fill:#9B9B9B;}
	.st155{fill:#9C9C9C;}
	.st156{fill:#9D9D9D;}
	.st157{fill:#9E9E9E;}
	.st158{fill:#9F9F9F;}
	.st159{fill:#A0A0A0;}
	.st160{fill:#A1A1A1;}
	.st161{fill:#A2A2A2;}
	.st162{fill:#A3A3A3;}
	.st163{fill:#A4A4A4;}
	.st164{fill:#A5A5A5;}
	.st165{fill:#A6A6A6;}
	.st166{fill:#A7A7A7;}
	.st167{fill:#A8A8A8;}
	.st168{fill:#A9A9A9;}
	.st169{fill:#AAAAAA;}
	.st170{fill:#ABABAB;}
	.st171{fill:#ACACAC;}
	.st172{fill:#ADADAD;}
	.st173{fill:#AEAEAE;}
	.st174{fill:#AFAFAF;}
	.st175{fill:#B0B0B0;}
	.st176{fill:#B1B1B1;}
	.st177{fill:#B2B2B2;}
	.st178{fill:#B3B3B3;}
	.st179{fill:#B4B4B4;}
	.st180{fill:#B5B5B5;}
	.st181{fill:#B6B6B6;}
	.st182{fill:#B7B7B7;}
	.st183{fill:#B8B8B8;}
	.st184{fill:#B9B9B9;}
	.st185{fill:#BABABA;}
	.st186{fill:#BBBBBB;}
	.st187{fill:#BCBCBC;}
	.st188{fill:#BDBDBD;}
	.st189{fill:#BEBEBE;}
	.st190{fill:#BFBFBF;}
	.st191{fill:#C0C0C0;}
	.st192{fill:#C1C1C1;}
	.st193{fill:#C2C2C2;}
	.st194{fill:#C3C3C3;}
	.st195{fill:#C4C4C4;}
	.st196{fill:#C5C5C5;}
	.st197{fill:#C6C6C6;}
	.st198{fill:#C7C7C7;}
	.st199{fill:#C8C8C8;}
	.st200{fill:#C9C9C9;}
	.st201{fill:#CACACA;}
	.st202{fill:#CBCBCB;}
	.st203{fill:#CCCCCC;}
	.st204{fill:#CDCDCD;}
	.st205{fill:#CECECE;}
	.st206{fill:#CFCFCF;}
	.st207{fill:#D0D0D0;}
	.st208{fill:#D1D1D1;}
	.st209{fill:#D2D2D2;}
	.st210{fill:#D3D3D3;}
	.st211{fill:#D4D4D4;}
	.st212{fill:#D5D5D5;}
	.st213{fill:#D6D6D6;}
	.st214{fill:#D7D7D7;}
	.st215{fill:#D8D8D8;}
	.st216{fill:#D9D9D9;}
	.st217{fill:#DADADA;}
	.st218{fill:#DBDBDB;}
	.st219{fill:#DCDCDC;}
	.st220{fill:#DDDDDD;}
	.st221{fill:#DEDEDE;}
	.st222{fill:#DFDFDF;}
	.st223{fill:#E0E0E0;}
	.st224{fill:#E1E1E1;}
	.st225{fill:#E2E2E2;}
	.st226{fill:#E3E3E3;}
	.st227{fill:#E4E4E4;}
	.st228{fill:#E5E5E5;}
	.st229{fill:#E6E6E6;}
	.st230{fill:#E7E7E7;}
	.st231{fill:#E8E8E8;}
	.st232{fill:#E9E9E9;}
	.st233{fill:#EAEAEA;}
	.st234{fill:#EBEBEB;}
	.st235{fill:#ECECEC;}
	.st236{fill:#EDEDED;}
	.st237{fill:#EEEEEE;}
	.st238{fill:#EFEFEF;}
	.st239{fill:#F0F0F0;}
	.st240{fill:#F1F1F1;}
	.st241{fill:#F2F2F2;}
	.st242{fill:#F3F3F3;}
	.st243{fill:#F4F4F4;}
	.st244{fill:#F5F5F5;}
	.st245{fill:#F6F6F6;}
	.st246{fill:#F7F7F7;}
	.st247{fill:#F8F8F8;}
	.st248{fill:#F9F9F9;}
	.st249{fill:#FAFAFA;}
	.st250{fill:#FBFBFB;}
	.st251{fill:#FCFCFC;}
	.st252{fill:#FDFDFD;}
	.st253{fill:#FEFEFE;}
	.st254{fill:#FFFFFF;}
</style>
<g>
	<polygon points="24,35.7 12.4,41.8 14.6,28.9 5.2,19.7 18.2,17.8 24,6 29.8,17.8 42.8,19.7 33.4,28.9 35.6,41.8 	"/>
	<polygon class="st0" points="24,35.6 12.4,41.7 14.6,28.8 5.2,19.7 18.2,17.8 24,6.1 29.8,17.8 42.8,19.7 33.4,28.8 35.6,41.7 	"/>
	<polygon class="st1" points="24,35.6 12.5,41.7 14.7,28.8 5.3,19.7 18.2,17.8 24,6.1 29.8,17.8 42.7,19.7 33.3,28.8 35.5,41.7 	"/>
	<polygon class="st2" points="24,35.6 12.5,41.6 14.7,28.8 5.4,19.7 18.3,17.9 24,6.2 29.7,17.9 42.6,19.7 33.3,28.8 35.5,41.6 	"/>
	<polygon class="st3" points="24,35.5 12.5,41.5 14.7,28.8 5.5,19.8 18.3,17.9 24,6.3 29.7,17.9 42.5,19.8 33.3,28.8 35.5,41.5 	"/>
	<polygon class="st4" points="24,35.5 12.6,41.5 14.8,28.8 5.5,19.8 18.3,17.9 24,6.4 29.7,17.9 42.5,19.8 33.2,28.8 35.4,41.5 	"/>
	<polygon class="st5" points="24,35.4 12.6,41.4 14.8,28.8 5.6,19.8 18.3,17.9 24,6.4 29.7,17.9 42.4,19.8 33.2,28.8 35.4,41.4 	"/>
	<polygon class="st6" points="24,35.4 12.7,41.4 14.8,28.7 5.7,19.8 18.3,18 24,6.5 29.7,18 42.3,19.8 33.2,28.7 35.3,41.4 	"/>
	<polygon class="st7" points="24,35.4 12.7,41.3 14.9,28.7 5.7,19.8 18.4,18 24,6.6 29.6,18 42.3,19.8 33.1,28.7 35.3,41.3 	"/>
	<polygon class="st8" points="24,35.3 12.8,41.2 14.9,28.7 5.8,19.9 18.4,18 24,6.6 29.6,18 42.2,19.9 33.1,28.7 35.2,41.2 	"/>
	<polygon class="st9" points="24,35.3 12.8,41.2 14.9,28.7 5.9,19.9 18.4,18.1 24,6.7 29.6,18.1 42.1,19.9 33.1,28.7 35.2,41.2 	"/>
	<polygon class="st10" points="24,35.2 12.9,41.1 15,28.7 6,19.9 18.4,18.1 24,6.8 29.6,18.1 42,19.9 33,28.7 35.1,41.1 	"/>
	<polygon class="st11" points="24,35.2 12.9,41 15,28.7 6,19.9 18.4,18.1 24,6.9 29.6,18.1 42,19.9 33,28.7 35.1,41 	"/>
	<polygon class="st12" points="24,35.2 12.9,41 15.1,28.7 6.1,19.9 18.5,18.1 24,6.9 29.5,18.1 41.9,19.9 32.9,28.7 35.1,41 	"/>
	<polygon class="st13" points="24,35.1 13,40.9 15.1,28.6 6.2,20 18.5,18.2 24,7 29.5,18.2 41.8,20 32.9,28.6 35,40.9 	"/>
	<polygon class="st14" points="24,35.1 13,40.8 15.1,28.6 6.2,20 18.5,18.2 24,7.1 29.5,18.2 41.8,20 32.9,28.6 35,40.8 	"/>
	<polygon class="st15" points="24,35 13.1,40.8 15.2,28.6 6.3,20 18.5,18.2 24,7.2 29.5,18.2 41.7,20 32.8,28.6 34.9,40.8 	"/>
	<polygon class="st16" points="24,35 13.1,40.7 15.2,28.6 6.4,20 18.6,18.2 24,7.2 29.4,18.2 41.6,20 32.8,28.6 34.9,40.7 	"/>
	<polygon class="st17" points="24,35 13.2,40.7 15.2,28.6 6.5,20 18.6,18.3 24,7.3 29.4,18.3 41.5,20 32.8,28.6 34.8,40.7 	"/>
	<polygon class="st18" points="24,34.9 13.2,40.6 15.3,28.6 6.5,20.1 18.6,18.3 24,7.4 29.4,18.3 41.5,20.1 32.7,28.6 34.8,40.6 	
		"/>
	<polygon class="st19" points="24,34.9 13.2,40.5 15.3,28.6 6.6,20.1 18.6,18.3 24,7.4 29.4,18.3 41.4,20.1 32.7,28.6 34.8,40.5 	
		"/>
	<polygon class="st20" points="24,34.8 13.3,40.5 15.3,28.5 6.7,20.1 18.6,18.4 24,7.5 29.4,18.4 41.3,20.1 32.7,28.5 34.7,40.5 	
		"/>
	<polygon class="st21" points="24,34.8 13.3,40.4 15.4,28.5 6.7,20.1 18.7,18.4 24,7.6 29.3,18.4 41.3,20.1 32.6,28.5 34.7,40.4 	
		"/>
	<polygon class="st22" points="24,34.7 13.4,40.3 15.4,28.5 6.8,20.1 18.7,18.4 24,7.7 29.3,18.4 41.2,20.1 32.6,28.5 34.6,40.3 	
		"/>
	<polygon class="st23" points="24,34.7 13.4,40.3 15.4,28.5 6.9,20.2 18.7,18.4 24,7.7 29.3,18.4 41.1,20.2 32.6,28.5 34.6,40.3 	
		"/>
	<polygon class="st24" points="24,34.7 13.5,40.2 15.5,28.5 7,20.2 18.7,18.5 24,7.8 29.3,18.5 41,20.2 32.5,28.5 34.5,40.2 	"/>
	<polygon class="st25" points="24,34.6 13.5,40.1 15.5,28.5 7,20.2 18.8,18.5 24,7.9 29.2,18.5 41,20.2 32.5,28.5 34.5,40.1 	"/>
	<polygon class="st26" points="24,34.6 13.6,40.1 15.6,28.4 7.1,20.2 18.8,18.5 24,7.9 29.2,18.5 40.9,20.2 32.4,28.4 34.4,40.1 	
		"/>
	<polygon class="st27" points="24,34.5 13.6,40 15.6,28.4 7.2,20.2 18.8,18.5 24,8 29.2,18.5 40.8,20.2 32.4,28.4 34.4,40 	"/>
	<polygon class="st28" points="24,34.5 13.6,39.9 15.6,28.4 7.2,20.3 18.8,18.6 24,8.1 29.2,18.6 40.8,20.3 32.4,28.4 34.4,39.9 	
		"/>
	<polygon class="st29" points="24,34.5 13.7,39.9 15.7,28.4 7.3,20.3 18.8,18.6 24,8.2 29.2,18.6 40.7,20.3 32.3,28.4 34.3,39.9 	
		"/>
	<polygon class="st30" points="24,34.4 13.7,39.8 15.7,28.4 7.4,20.3 18.9,18.6 24,8.2 29.1,18.6 40.6,20.3 32.3,28.4 34.3,39.8 	
		"/>
	<polygon class="st31" points="24,34.4 13.8,39.8 15.7,28.4 7.5,20.3 18.9,18.7 24,8.3 29.1,18.7 40.5,20.3 32.3,28.4 34.2,39.8 	
		"/>
	<polygon class="st32" points="24,34.3 13.8,39.7 15.8,28.4 7.5,20.3 18.9,18.7 24,8.4 29.1,18.7 40.5,20.3 32.2,28.4 34.2,39.7 	
		"/>
	<polygon class="st33" points="24,34.3 13.9,39.6 15.8,28.3 7.6,20.4 18.9,18.7 24,8.4 29.1,18.7 40.4,20.4 32.2,28.3 34.1,39.6 	
		"/>
	<polygon class="st34" points="24,34.3 13.9,39.6 15.8,28.3 7.7,20.4 19,18.7 24,8.5 29,18.7 40.3,20.4 32.2,28.3 34.1,39.6 	"/>
	<polygon class="st35" points="24,34.2 14,39.5 15.9,28.3 7.8,20.4 19,18.8 24,8.6 29,18.8 40.2,20.4 32.1,28.3 34,39.5 	"/>
	<polygon class="st36" points="24,34.2 14,39.4 15.9,28.3 7.8,20.4 19,18.8 24,8.7 29,18.8 40.2,20.4 32.1,28.3 34,39.4 	"/>
	<polygon class="st37" points="24,34.1 14,39.4 15.9,28.3 7.9,20.4 19,18.8 24,8.7 29,18.8 40.1,20.4 32.1,28.3 34,39.4 	"/>
	<polygon class="st38" points="24,34.1 14.1,39.3 16,28.3 8,20.5 19,18.8 24,8.8 29,18.8 40,20.5 32,28.3 33.9,39.3 	"/>
	<polygon class="st39" points="24,34.1 14.1,39.2 16,28.3 8,20.5 19.1,18.9 24,8.9 28.9,18.9 40,20.5 32,28.3 33.9,39.2 	"/>
	<polygon class="st40" points="24,34 14.2,39.2 16.1,28.2 8.1,20.5 19.1,18.9 24,8.9 28.9,18.9 39.9,20.5 31.9,28.2 33.8,39.2 	"/>
	<polygon class="st41" points="24,34 14.2,39.1 16.1,28.2 8.2,20.5 19.1,18.9 24,9 28.9,18.9 39.8,20.5 31.9,28.2 33.8,39.1 	"/>
	<polygon class="st42" points="24,33.9 14.3,39 16.1,28.2 8.3,20.5 19.1,19 24,9.1 28.9,19 39.7,20.5 31.9,28.2 33.7,39 	"/>
	<polygon class="st43" points="24,33.9 14.3,39 16.2,28.2 8.3,20.6 19.2,19 24,9.2 28.8,19 39.7,20.6 31.8,28.2 33.7,39 	"/>
	<polygon class="st44" points="24,33.8 14.4,38.9 16.2,28.2 8.4,20.6 19.2,19 24,9.2 28.8,19 39.6,20.6 31.8,28.2 33.6,38.9 	"/>
	<polygon class="st45" points="24,33.8 14.4,38.9 16.2,28.2 8.5,20.6 19.2,19 24,9.3 28.8,19 39.5,20.6 31.8,28.2 33.6,38.9 	"/>
	<polygon class="st46" points="24,33.8 14.4,38.8 16.3,28.2 8.5,20.6 19.2,19.1 24,9.4 28.8,19.1 39.5,20.6 31.7,28.2 33.6,38.8 	
		"/>
	<polygon class="st47" points="24,33.7 14.5,38.7 16.3,28.1 8.6,20.6 19.2,19.1 24,9.5 28.8,19.1 39.4,20.6 31.7,28.1 33.5,38.7 	
		"/>
	<polygon class="st48" points="24,33.7 14.5,38.7 16.3,28.1 8.7,20.7 19.3,19.1 24,9.5 28.7,19.1 39.3,20.7 31.7,28.1 33.5,38.7 	
		"/>
	<polygon class="st49" points="24,33.6 14.6,38.6 16.4,28.1 8.8,20.7 19.3,19.1 24,9.6 28.7,19.1 39.2,20.7 31.6,28.1 33.4,38.6 	
		"/>
	<polygon class="st50" points="24,33.6 14.6,38.5 16.4,28.1 8.8,20.7 19.3,19.2 24,9.7 28.7,19.2 39.2,20.7 31.6,28.1 33.4,38.5 	
		"/>
	<polygon class="st51" points="24,33.6 14.7,38.5 16.4,28.1 8.9,20.7 19.3,19.2 24,9.7 28.7,19.2 39.1,20.7 31.6,28.1 33.3,38.5 	
		"/>
	<polygon class="st52" points="24,33.5 14.7,38.4 16.5,28.1 9,20.7 19.4,19.2 24,9.8 28.6,19.2 39,20.7 31.5,28.1 33.3,38.4 	"/>
	<polygon class="st53" points="24,33.5 14.8,38.3 16.5,28 9,20.8 19.4,19.3 24,9.9 28.6,19.3 39,20.8 31.5,28 33.2,38.3 	"/>
	<polygon class="st54" points="24,33.4 14.8,38.3 16.6,28 9.1,20.8 19.4,19.3 24,10 28.6,19.3 38.9,20.8 31.4,28 33.2,38.3 	"/>
	<polygon class="st55" points="24,33.4 14.8,38.2 16.6,28 9.2,20.8 19.4,19.3 24,10 28.6,19.3 38.8,20.8 31.4,28 33.2,38.2 	"/>
	<polygon class="st56" points="24,33.4 14.9,38.2 16.6,28 9.3,20.8 19.4,19.3 24,10.1 28.6,19.3 38.7,20.8 31.4,28 33.1,38.2 	"/>
	<polygon class="st57" points="24,33.3 14.9,38.1 16.7,28 9.3,20.8 19.5,19.4 24,10.2 28.5,19.4 38.7,20.8 31.3,28 33.1,38.1 	"/>
	<polygon class="st58" points="24,33.3 15,38 16.7,28 9.4,20.9 19.5,19.4 24,10.2 28.5,19.4 38.6,20.9 31.3,28 33,38 	"/>
	<polygon class="st59" points="24,33.2 15,38 16.7,28 9.5,20.9 19.5,19.4 24,10.3 28.5,19.4 38.5,20.9 31.3,28 33,38 	"/>
	<polygon class="st60" points="24,33.2 15.1,37.9 16.8,27.9 9.5,20.9 19.5,19.4 24,10.4 28.5,19.4 38.5,20.9 31.2,27.9 32.9,37.9 	
		"/>
	<polygon class="st61" points="24,33.2 15.1,37.8 16.8,27.9 9.6,20.9 19.6,19.5 24,10.5 28.4,19.5 38.4,20.9 31.2,27.9 32.9,37.8 	
		"/>
	<polygon class="st62" points="24,33.1 15.2,37.8 16.8,27.9 9.7,20.9 19.6,19.5 24,10.5 28.4,19.5 38.3,20.9 31.2,27.9 32.8,37.8 	
		"/>
	<polygon class="st63" points="24,33.1 15.2,37.7 16.9,27.9 9.8,21 19.6,19.5 24,10.6 28.4,19.5 38.2,21 31.1,27.9 32.8,37.7 	"/>
	<polygon class="st64" points="24,33 15.2,37.6 16.9,27.9 9.8,21 19.6,19.6 24,10.7 28.4,19.6 38.2,21 31.1,27.9 32.8,37.6 	"/>
	<polygon class="st65" points="24,33 15.3,37.6 16.9,27.9 9.9,21 19.6,19.6 24,10.7 28.4,19.6 38.1,21 31.1,27.9 32.7,37.6 	"/>
	<polygon class="st66" points="24,33 15.3,37.5 17,27.9 10,21 19.7,19.6 24,10.8 28.3,19.6 38,21 31,27.9 32.7,37.5 	"/>
	<polygon class="st67" points="24,32.9 15.4,37.4 17,27.8 10,21 19.7,19.6 24,10.9 28.3,19.6 38,21 31,27.8 32.6,37.4 	"/>
	<polygon class="st68" points="24,32.9 15.4,37.4 17.1,27.8 10.1,21.1 19.7,19.7 24,11 28.3,19.7 37.9,21.1 30.9,27.8 32.6,37.4 	
		"/>
	<polygon class="st69" points="24,32.8 15.5,37.3 17.1,27.8 10.2,21.1 19.7,19.7 24,11 28.3,19.7 37.8,21.1 30.9,27.8 32.5,37.3 	
		"/>
	<polygon class="st70" points="24,32.8 15.5,37.3 17.1,27.8 10.3,21.1 19.8,19.7 24,11.1 28.2,19.7 37.7,21.1 30.9,27.8 32.5,37.3 	
		"/>
	<polygon class="st71" points="24,32.7 15.5,37.2 17.2,27.8 10.3,21.1 19.8,19.7 24,11.2 28.2,19.7 37.7,21.1 30.8,27.8 32.5,37.2 	
		"/>
	<polygon class="st72" points="24,32.7 15.6,37.1 17.2,27.8 10.4,21.1 19.8,19.8 24,11.3 28.2,19.8 37.6,21.1 30.8,27.8 32.4,37.1 	
		"/>
	<polygon class="st73" points="24,32.7 15.6,37.1 17.2,27.7 10.5,21.2 19.8,19.8 24,11.3 28.2,19.8 37.5,21.2 30.8,27.7 32.4,37.1 	
		"/>
	<polygon class="st74" points="24,32.6 15.7,37 17.3,27.7 10.5,21.2 19.8,19.8 24,11.4 28.2,19.8 37.5,21.2 30.7,27.7 32.3,37 	"/>
	<polygon class="st75" points="24,32.6 15.7,36.9 17.3,27.7 10.6,21.2 19.9,19.8 24,11.5 28.1,19.8 37.4,21.2 30.7,27.7 32.3,36.9 	
		"/>
	<polygon class="st76" points="24,32.5 15.8,36.9 17.3,27.7 10.7,21.2 19.9,19.9 24,11.5 28.1,19.9 37.3,21.2 30.7,27.7 32.2,36.9 	
		"/>
	<polygon class="st77" points="24,32.5 15.8,36.8 17.4,27.7 10.8,21.2 19.9,19.9 24,11.6 28.1,19.9 37.2,21.2 30.6,27.7 32.2,36.8 	
		"/>
	<polygon class="st78" points="24,32.5 15.9,36.7 17.4,27.7 10.8,21.3 19.9,19.9 24,11.7 28.1,19.9 37.2,21.3 30.6,27.7 32.1,36.7 	
		"/>
	<polygon class="st79" points="24,32.4 15.9,36.7 17.4,27.7 10.9,21.3 20,20 24,11.8 28,20 37.1,21.3 30.6,27.7 32.1,36.7 	"/>
	<polygon class="st80" points="24,32.4 15.9,36.6 17.5,27.6 11,21.3 20,20 24,11.8 28,20 37,21.3 30.5,27.6 32.1,36.6 	"/>
	<polygon class="st81" points="24,32.3 16,36.5 17.5,27.6 11,21.3 20,20 24,11.9 28,20 37,21.3 30.5,27.6 32,36.5 	"/>
	<polygon class="st82" points="24,32.3 16,36.5 17.6,27.6 11.1,21.3 20,20 24,12 28,20 36.9,21.3 30.4,27.6 32,36.5 	"/>
	<polygon class="st83" points="24,32.3 16.1,36.4 17.6,27.6 11.2,21.4 20,20.1 24,12 28,20.1 36.8,21.4 30.4,27.6 31.9,36.4 	"/>
	<polygon class="st84" points="24,32.2 16.1,36.4 17.6,27.6 11.3,21.4 20.1,20.1 24,12.1 27.9,20.1 36.7,21.4 30.4,27.6 31.9,36.4 	
		"/>
	<polygon class="st85" points="24,32.2 16.2,36.3 17.7,27.6 11.3,21.4 20.1,20.1 24,12.2 27.9,20.1 36.7,21.4 30.3,27.6 31.8,36.3 	
		"/>
	<polygon class="st86" points="24,32.1 16.2,36.2 17.7,27.6 11.4,21.4 20.1,20.1 24,12.3 27.9,20.1 36.6,21.4 30.3,27.6 31.8,36.2 	
		"/>
	<polygon class="st87" points="24,32.1 16.3,36.2 17.7,27.5 11.5,21.4 20.1,20.2 24,12.3 27.9,20.2 36.5,21.4 30.3,27.5 31.7,36.2 	
		"/>
	<polygon class="st88" points="24,32.1 16.3,36.1 17.8,27.5 11.5,21.5 20.2,20.2 24,12.4 27.8,20.2 36.5,21.5 30.2,27.5 31.7,36.1 	
		"/>
	<polygon class="st89" points="24,32 16.3,36 17.8,27.5 11.6,21.5 20.2,20.2 24,12.5 27.8,20.2 36.4,21.5 30.2,27.5 31.7,36 	"/>
	<polygon class="st90" points="24,32 16.4,36 17.8,27.5 11.7,21.5 20.2,20.3 24,12.5 27.8,20.3 36.3,21.5 30.2,27.5 31.6,36 	"/>
	<polygon class="st91" points="24,31.9 16.4,35.9 17.9,27.5 11.8,21.5 20.2,20.3 24,12.6 27.8,20.3 36.2,21.5 30.1,27.5 31.6,35.9 	
		"/>
	<polygon class="st92" points="24,31.9 16.5,35.8 17.9,27.5 11.8,21.5 20.2,20.3 24,12.7 27.8,20.3 36.2,21.5 30.1,27.5 31.5,35.8 	
		"/>
	<polygon class="st93" points="24,31.8 16.5,35.8 17.9,27.5 11.9,21.6 20.3,20.3 24,12.8 27.7,20.3 36.1,21.6 30.1,27.5 31.5,35.8 	
		"/>
	<polygon class="st94" points="24,31.8 16.6,35.7 18,27.4 12,21.6 20.3,20.4 24,12.8 27.7,20.4 36,21.6 30,27.4 31.4,35.7 	"/>
	<polygon class="st95" points="24,31.8 16.6,35.7 18,27.4 12,21.6 20.3,20.4 24,12.9 27.7,20.4 36,21.6 30,27.4 31.4,35.7 	"/>
	<polygon class="st96" points="24,31.7 16.7,35.6 18.1,27.4 12.1,21.6 20.3,20.4 24,13 27.7,20.4 35.9,21.6 29.9,27.4 31.3,35.6 	
		"/>
	<polygon class="st97" points="24,31.7 16.7,35.5 18.1,27.4 12.2,21.6 20.3,20.4 24,13 27.7,20.4 35.8,21.6 29.9,27.4 31.3,35.5 	
		"/>
	<polygon class="st98" points="24,31.6 16.7,35.5 18.1,27.4 12.3,21.7 20.4,20.5 24,13.1 27.6,20.5 35.7,21.7 29.9,27.4 31.3,35.5 	
		"/>
	<polygon class="st99" points="24,31.6 16.8,35.4 18.2,27.4 12.3,21.7 20.4,20.5 24,13.2 27.6,20.5 35.7,21.7 29.8,27.4 31.2,35.4 	
		"/>
	<polygon class="st100" points="24,31.6 16.8,35.3 18.2,27.3 12.4,21.7 20.4,20.5 24,13.3 27.6,20.5 35.6,21.7 29.8,27.3 31.2,35.3 
			"/>
	<polygon class="st101" points="24,31.5 16.9,35.3 18.2,27.3 12.5,21.7 20.4,20.6 24,13.3 27.6,20.6 35.5,21.7 29.8,27.3 31.1,35.3 
			"/>
	<polygon class="st102" points="24,31.5 16.9,35.2 18.3,27.3 12.5,21.7 20.5,20.6 24,13.4 27.5,20.6 35.5,21.7 29.7,27.3 31.1,35.2 
			"/>
	<polygon class="st103" points="24,31.4 17,35.1 18.3,27.3 12.6,21.8 20.5,20.6 24,13.5 27.5,20.6 35.4,21.8 29.7,27.3 31,35.1 	"/>
	<polygon class="st104" points="24,31.4 17,35.1 18.3,27.3 12.7,21.8 20.5,20.6 24,13.6 27.5,20.6 35.3,21.8 29.7,27.3 31,35.1 	"/>
	<polygon class="st105" points="24,31.4 17.1,35 18.4,27.3 12.8,21.8 20.5,20.7 24,13.6 27.5,20.7 35.2,21.8 29.6,27.3 30.9,35 	"/>
	<polygon class="st106" points="24,31.3 17.1,34.9 18.4,27.3 12.8,21.8 20.5,20.7 24,13.7 27.5,20.7 35.2,21.8 29.6,27.3 30.9,34.9 
			"/>
	<polygon class="st107" points="24,31.3 17.1,34.9 18.4,27.2 12.9,21.8 20.6,20.7 24,13.8 27.4,20.7 35.1,21.8 29.6,27.2 30.9,34.9 
			"/>
	<polygon class="st108" points="24,31.2 17.2,34.8 18.5,27.2 13,21.9 20.6,20.7 24,13.8 27.4,20.7 35,21.9 29.5,27.2 30.8,34.8 	"/>
	<polygon class="st109" points="24,31.2 17.2,34.8 18.5,27.2 13,21.9 20.6,20.8 24,13.9 27.4,20.8 35,21.9 29.5,27.2 30.8,34.8 	"/>
	<polygon class="st110" points="24,31.2 17.3,34.7 18.6,27.2 13.1,21.9 20.6,20.8 24,14 27.4,20.8 34.9,21.9 29.4,27.2 30.7,34.7 	
		"/>
	<polygon class="st111" points="24,31.1 17.3,34.6 18.6,27.2 13.2,21.9 20.7,20.8 24,14.1 27.3,20.8 34.8,21.9 29.4,27.2 30.7,34.6 
			"/>
	<polygon class="st112" points="24,31.1 17.4,34.6 18.6,27.2 13.3,21.9 20.7,20.9 24,14.1 27.3,20.9 34.7,21.9 29.4,27.2 30.6,34.6 
			"/>
	<polygon class="st113" points="24,31 17.4,34.5 18.7,27.2 13.3,22 20.7,20.9 24,14.2 27.3,20.9 34.7,22 29.3,27.2 30.6,34.5 	"/>
	<polygon class="st114" points="24,31 17.4,34.4 18.7,27.1 13.4,22 20.7,20.9 24,14.3 27.3,20.9 34.6,22 29.3,27.1 30.6,34.4 	"/>
	<polygon class="st115" points="24,30.9 17.5,34.4 18.7,27.1 13.5,22 20.7,20.9 24,14.3 27.3,20.9 34.5,22 29.3,27.1 30.5,34.4 	"/>
	<polygon class="st116" points="24,30.9 17.5,34.3 18.8,27.1 13.5,22 20.8,21 24,14.4 27.2,21 34.5,22 29.2,27.1 30.5,34.3 	"/>
	<polygon class="st117" points="24,30.9 17.6,34.2 18.8,27.1 13.6,22 20.8,21 24,14.5 27.2,21 34.4,22 29.2,27.1 30.4,34.2 	"/>
	<polygon class="st118" points="24,30.8 17.6,34.2 18.8,27.1 13.7,22.1 20.8,21 24,14.6 27.2,21 34.3,22.1 29.2,27.1 30.4,34.2 	"/>
	<polygon class="st119" points="24,30.8 17.7,34.1 18.9,27.1 13.8,22.1 20.8,21 24,14.6 27.2,21 34.2,22.1 29.1,27.1 30.3,34.1 	"/>
	<polygon class="st120" points="24,30.7 17.7,34 18.9,27.1 13.8,22.1 20.9,21.1 24,14.7 27.1,21.1 34.2,22.1 29.1,27.1 30.3,34 	"/>
	<polygon class="st121" points="24,30.7 17.8,34 19,27 13.9,22.1 20.9,21.1 24,14.8 27.1,21.1 34.1,22.1 29,27 30.2,34 	"/>
	<polygon class="st122" points="24,30.7 17.8,33.9 19,27 14,22.1 20.9,21.1 24,14.8 27.1,21.1 34,22.1 29,27 30.2,33.9 	"/>
	<polygon class="st123" points="24,30.6 17.8,33.9 19,27 14,22.2 20.9,21.2 24,14.9 27.1,21.2 34,22.2 29,27 30.2,33.9 	"/>
	<polygon class="st124" points="24,30.6 17.9,33.8 19.1,27 14.1,22.2 20.9,21.2 24,15 27.1,21.2 33.9,22.2 28.9,27 30.1,33.8 	"/>
	<polygon class="st125" points="24,30.5 17.9,33.7 19.1,27 14.2,22.2 21,21.2 24,15.1 27,21.2 33.8,22.2 28.9,27 30.1,33.7 	"/>
	<polygon class="st126" points="24,30.5 18,33.7 19.1,27 14.3,22.2 21,21.2 24,15.1 27,21.2 33.7,22.2 28.9,27 30,33.7 	"/>
	<polygon class="st127" points="24,30.5 18,33.6 19.2,26.9 14.3,22.2 21,21.3 24,15.2 27,21.3 33.7,22.2 28.8,26.9 30,33.6 	"/>
	<polygon class="st128" points="24,30.4 18.1,33.5 19.2,26.9 14.4,22.3 21,21.3 24,15.3 27,21.3 33.6,22.3 28.8,26.9 29.9,33.5 	"/>
	<polygon class="st129" points="24,30.4 18.1,33.5 19.2,26.9 14.5,22.3 21.1,21.3 24,15.4 26.9,21.3 33.5,22.3 28.8,26.9 29.9,33.5 
			"/>
	<polygon class="st130" points="24,30.3 18.2,33.4 19.3,26.9 14.5,22.3 21.1,21.3 24,15.4 26.9,21.3 33.5,22.3 28.7,26.9 29.8,33.4 
			"/>
	<polygon class="st131" points="24,30.3 18.2,33.3 19.3,26.9 14.6,22.3 21.1,21.4 24,15.5 26.9,21.4 33.4,22.3 28.7,26.9 29.8,33.3 
			"/>
	<polygon class="st132" points="24,30.3 18.2,33.3 19.3,26.9 14.7,22.3 21.1,21.4 24,15.6 26.9,21.4 33.3,22.3 28.7,26.9 29.8,33.3 
			"/>
	<polygon class="st133" points="24,30.2 18.3,33.2 19.4,26.9 14.8,22.4 21.1,21.4 24,15.6 26.9,21.4 33.2,22.4 28.6,26.9 29.7,33.2 
			"/>
	<polygon class="st134" points="24,30.2 18.3,33.2 19.4,26.8 14.8,22.4 21.2,21.5 24,15.7 26.8,21.5 33.2,22.4 28.6,26.8 29.7,33.2 
			"/>
	<polygon class="st135" points="24,30.1 18.4,33.1 19.5,26.8 14.9,22.4 21.2,21.5 24,15.8 26.8,21.5 33.1,22.4 28.5,26.8 29.6,33.1 
			"/>
	<polygon class="st136" points="24,30.1 18.4,33 19.5,26.8 15,22.4 21.2,21.5 24,15.9 26.8,21.5 33,22.4 28.5,26.8 29.6,33 	"/>
	<polygon class="st137" points="24,30.1 18.5,33 19.5,26.8 15,22.4 21.2,21.5 24,15.9 26.8,21.5 33,22.4 28.5,26.8 29.5,33 	"/>
	<polygon class="st138" points="24,30 18.5,32.9 19.6,26.8 15.1,22.5 21.3,21.6 24,16 26.7,21.6 32.9,22.5 28.4,26.8 29.5,32.9 	"/>
	<polygon class="st139" points="24,30 18.6,32.8 19.6,26.8 15.2,22.5 21.3,21.6 24,16.1 26.7,21.6 32.8,22.5 28.4,26.8 29.4,32.8 	
		"/>
	<polygon class="st140" points="24,29.9 18.6,32.8 19.6,26.8 15.3,22.5 21.3,21.6 24,16.1 26.7,21.6 32.7,22.5 28.4,26.8 29.4,32.8 
			"/>
	<polygon class="st141" points="24,29.9 18.6,32.7 19.7,26.7 15.3,22.5 21.3,21.6 24,16.2 26.7,21.6 32.7,22.5 28.3,26.7 29.4,32.7 
			"/>
	<polygon class="st142" points="24,29.8 18.7,32.6 19.7,26.7 15.4,22.5 21.3,21.7 24,16.3 26.7,21.7 32.6,22.5 28.3,26.7 29.3,32.6 
			"/>
	<polygon class="st143" points="24,29.8 18.7,32.6 19.7,26.7 15.5,22.6 21.4,21.7 24,16.4 26.6,21.7 32.5,22.6 28.3,26.7 29.3,32.6 
			"/>
	<polygon class="st144" points="24,29.8 18.8,32.5 19.8,26.7 15.5,22.6 21.4,21.7 24,16.4 26.6,21.7 32.5,22.6 28.2,26.7 29.2,32.5 
			"/>
	<polygon class="st145" points="24,29.7 18.8,32.4 19.8,26.7 15.6,22.6 21.4,21.8 24,16.5 26.6,21.8 32.4,22.6 28.2,26.7 29.2,32.4 
			"/>
	<polygon class="st146" points="24,29.7 18.9,32.4 19.8,26.7 15.7,22.6 21.4,21.8 24,16.6 26.6,21.8 32.3,22.6 28.2,26.7 29.1,32.4 
			"/>
	<polygon class="st147" points="24,29.6 18.9,32.3 19.9,26.6 15.8,22.6 21.5,21.8 24,16.6 26.5,21.8 32.2,22.6 28.1,26.6 29.1,32.3 
			"/>
	<polygon class="st148" points="24,29.6 19,32.3 19.9,26.6 15.8,22.7 21.5,21.8 24,16.7 26.5,21.8 32.2,22.7 28.1,26.6 29,32.3 	"/>
	<polygon class="st149" points="24,29.6 19,32.2 20,26.6 15.9,22.7 21.5,21.9 24,16.8 26.5,21.9 32.1,22.7 28,26.6 29,32.2 	"/>
	<polygon class="st150" points="24,29.5 19,32.1 20,26.6 16,22.7 21.5,21.9 24,16.9 26.5,21.9 32,22.7 28,26.6 29,32.1 	"/>
	<polygon class="st151" points="24,29.5 19.1,32.1 20,26.6 16,22.7 21.5,21.9 24,16.9 26.5,21.9 32,22.7 28,26.6 28.9,32.1 	"/>
	<polygon class="st152" points="24,29.4 19.1,32 20.1,26.6 16.1,22.7 21.6,21.9 24,17 26.4,21.9 31.9,22.7 27.9,26.6 28.9,32 	"/>
	<polygon class="st153" points="24,29.4 19.2,31.9 20.1,26.6 16.2,22.8 21.6,22 24,17.1 26.4,22 31.8,22.8 27.9,26.6 28.8,31.9 	"/>
	<polygon class="st154" points="24,29.4 19.2,31.9 20.1,26.5 16.3,22.8 21.6,22 24,17.1 26.4,22 31.7,22.8 27.9,26.5 28.8,31.9 	"/>
	<polygon class="st155" points="24,29.3 19.3,31.8 20.2,26.5 16.3,22.8 21.6,22 24,17.2 26.4,22 31.7,22.8 27.8,26.5 28.7,31.8 	"/>
	<polygon class="st156" points="24,29.3 19.3,31.7 20.2,26.5 16.4,22.8 21.7,22 24,17.3 26.3,22 31.6,22.8 27.8,26.5 28.7,31.7 	"/>
	<polygon class="st157" points="24,29.2 19.3,31.7 20.2,26.5 16.5,22.8 21.7,22.1 24,17.4 26.3,22.1 31.5,22.8 27.8,26.5 28.7,31.7 
			"/>
	<polygon class="st158" points="24,29.2 19.4,31.6 20.3,26.5 16.5,22.9 21.7,22.1 24,17.4 26.3,22.1 31.5,22.9 27.7,26.5 28.6,31.6 
			"/>
	<polygon class="st159" points="24,29.2 19.4,31.5 20.3,26.5 16.6,22.9 21.7,22.1 24,17.5 26.3,22.1 31.4,22.9 27.7,26.5 28.6,31.5 
			"/>
	<polygon class="st160" points="24,29.1 19.5,31.5 20.3,26.5 16.7,22.9 21.7,22.2 24,17.6 26.3,22.2 31.3,22.9 27.7,26.5 28.5,31.5 
			"/>
	<polygon class="st161" points="24,29.1 19.5,31.4 20.4,26.4 16.8,22.9 21.8,22.2 24,17.7 26.2,22.2 31.2,22.9 27.6,26.4 28.5,31.4 
			"/>
	<polygon class="st162" points="24,29 19.6,31.4 20.4,26.4 16.8,22.9 21.8,22.2 24,17.7 26.2,22.2 31.2,22.9 27.6,26.4 28.4,31.4 	
		"/>
	<polygon class="st163" points="24,29 19.6,31.3 20.5,26.4 16.9,23 21.8,22.2 24,17.8 26.2,22.2 31.1,23 27.5,26.4 28.4,31.3 	"/>
	<polygon class="st164" points="24,28.9 19.7,31.2 20.5,26.4 17,23 21.8,22.3 24,17.9 26.2,22.3 31,23 27.5,26.4 28.3,31.2 	"/>
	<polygon class="st165" points="24,28.9 19.7,31.2 20.5,26.4 17,23 21.9,22.3 24,17.9 26.1,22.3 31,23 27.5,26.4 28.3,31.2 	"/>
	<polygon class="st166" points="24,28.9 19.7,31.1 20.6,26.4 17.1,23 21.9,22.3 24,18 26.1,22.3 30.9,23 27.4,26.4 28.3,31.1 	"/>
	<polygon class="st167" points="24,28.8 19.8,31 20.6,26.4 17.2,23 21.9,22.3 24,18.1 26.1,22.3 30.8,23 27.4,26.4 28.2,31 	"/>
	<polygon class="st168" points="24,28.8 19.8,31 20.6,26.3 17.3,23.1 21.9,22.4 24,18.2 26.1,22.4 30.7,23.1 27.4,26.3 28.2,31 	"/>
	<polygon class="st169" points="24,28.7 19.9,30.9 20.7,26.3 17.3,23.1 21.9,22.4 24,18.2 26.1,22.4 30.7,23.1 27.3,26.3 28.1,30.9 
			"/>
	<polygon class="st170" points="24,28.7 19.9,30.8 20.7,26.3 17.4,23.1 22,22.4 24,18.3 26,22.4 30.6,23.1 27.3,26.3 28.1,30.8 	"/>
	<polygon class="st171" points="24,28.7 20,30.8 20.7,26.3 17.5,23.1 22,22.5 24,18.4 26,22.5 30.5,23.1 27.3,26.3 28,30.8 	"/>
	<polygon class="st172" points="24,28.6 20,30.7 20.8,26.3 17.5,23.1 22,22.5 24,18.4 26,22.5 30.5,23.1 27.2,26.3 28,30.7 	"/>
	<polygon class="st173" points="24,28.6 20.1,30.7 20.8,26.3 17.6,23.2 22,22.5 24,18.5 26,22.5 30.4,23.2 27.2,26.3 27.9,30.7 	"/>
	<polygon class="st174" points="24,28.5 20.1,30.6 20.8,26.2 17.7,23.2 22.1,22.5 24,18.6 25.9,22.5 30.3,23.2 27.2,26.2 27.9,30.6 
			"/>
	<polygon class="st175" points="24,28.5 20.1,30.5 20.9,26.2 17.8,23.2 22.1,22.6 24,18.7 25.9,22.6 30.2,23.2 27.1,26.2 27.9,30.5 
			"/>
	<polygon class="st176" points="24,28.5 20.2,30.5 20.9,26.2 17.8,23.2 22.1,22.6 24,18.7 25.9,22.6 30.2,23.2 27.1,26.2 27.8,30.5 
			"/>
	<polygon class="st177" points="24,28.4 20.2,30.4 21,26.2 17.9,23.2 22.1,22.6 24,18.8 25.9,22.6 30.1,23.2 27,26.2 27.8,30.4 	"/>
	<polygon class="st178" points="24,28.4 20.3,30.3 21,26.2 18,23.3 22.1,22.6 24,18.9 25.9,22.6 30,23.3 27,26.2 27.7,30.3 	"/>
	<polygon class="st179" points="24,28.3 20.3,30.3 21,26.2 18,23.3 22.2,22.7 24,18.9 25.8,22.7 30,23.3 27,26.2 27.7,30.3 	"/>
	<polygon class="st180" points="24,28.3 20.4,30.2 21.1,26.2 18.1,23.3 22.2,22.7 24,19 25.8,22.7 29.9,23.3 26.9,26.2 27.6,30.2 	
		"/>
	<polygon class="st181" points="24,28.3 20.4,30.1 21.1,26.1 18.2,23.3 22.2,22.7 24,19.1 25.8,22.7 29.8,23.3 26.9,26.1 27.6,30.1 
			"/>
	<polygon class="st182" points="24,28.2 20.5,30.1 21.1,26.1 18.3,23.3 22.2,22.8 24,19.2 25.8,22.8 29.7,23.3 26.9,26.1 27.5,30.1 
			"/>
	<polygon class="st183" points="24,28.2 20.5,30 21.2,26.1 18.3,23.4 22.2,22.8 24,19.2 25.8,22.8 29.7,23.4 26.8,26.1 27.5,30 	"/>
	<polygon class="st184" points="24,28.1 20.5,29.9 21.2,26.1 18.4,23.4 22.3,22.8 24,19.3 25.7,22.8 29.6,23.4 26.8,26.1 27.5,29.9 
			"/>
	<polygon class="st185" points="24,28.1 20.6,29.9 21.2,26.1 18.5,23.4 22.3,22.8 24,19.4 25.7,22.8 29.5,23.4 26.8,26.1 27.4,29.9 
			"/>
	<polygon class="st186" points="24,28 20.6,29.8 21.3,26.1 18.5,23.4 22.3,22.9 24,19.5 25.7,22.9 29.5,23.4 26.7,26.1 27.4,29.8 	
		"/>
	<polygon class="st187" points="24,28 20.7,29.8 21.3,26.1 18.6,23.4 22.3,22.9 24,19.5 25.7,22.9 29.4,23.4 26.7,26.1 27.3,29.8 	
		"/>
	<polygon class="st188" points="24,28 20.7,29.7 21.3,26 18.7,23.5 22.4,22.9 24,19.6 25.6,22.9 29.3,23.5 26.7,26 27.3,29.7 	"/>
	<polygon class="st189" points="24,27.9 20.8,29.6 21.4,26 18.8,23.5 22.4,22.9 24,19.7 25.6,22.9 29.2,23.5 26.6,26 27.2,29.6 	"/>
	<polygon class="st190" points="24,27.9 20.8,29.6 21.4,26 18.8,23.5 22.4,23 24,19.7 25.6,23 29.2,23.5 26.6,26 27.2,29.6 	"/>
	<polygon class="st191" points="24,27.8 20.9,29.5 21.5,26 18.9,23.5 22.4,23 24,19.8 25.6,23 29.1,23.5 26.5,26 27.1,29.5 	"/>
	<polygon class="st192" points="24,27.8 20.9,29.4 21.5,26 19,23.5 22.4,23 24,19.9 25.6,23 29,23.5 26.5,26 27.1,29.4 	"/>
	<polygon class="st193" points="24,27.8 20.9,29.4 21.5,26 19,23.6 22.5,23.1 24,20 25.5,23.1 29,23.6 26.5,26 27.1,29.4 	"/>
	<polygon class="st194" points="24,27.7 21,29.3 21.6,25.9 19.1,23.6 22.5,23.1 24,20 25.5,23.1 28.9,23.6 26.4,25.9 27,29.3 	"/>
	<polygon class="st195" points="24,27.7 21,29.2 21.6,25.9 19.2,23.6 22.5,23.1 24,20.1 25.5,23.1 28.8,23.6 26.4,25.9 27,29.2 	"/>
	<polygon class="st196" points="24,27.6 21.1,29.2 21.6,25.9 19.3,23.6 22.5,23.1 24,20.2 25.5,23.1 28.7,23.6 26.4,25.9 26.9,29.2 
			"/>
	<polygon class="st197" points="24,27.6 21.1,29.1 21.7,25.9 19.3,23.6 22.6,23.2 24,20.2 25.4,23.2 28.7,23.6 26.3,25.9 26.9,29.1 
			"/>
	<polygon class="st198" points="24,27.6 21.2,29.1 21.7,25.9 19.4,23.7 22.6,23.2 24,20.3 25.4,23.2 28.6,23.7 26.3,25.9 26.8,29.1 
			"/>
	<polygon class="st199" points="24,27.5 21.2,29 21.7,25.9 19.5,23.7 22.6,23.2 24,20.4 25.4,23.2 28.5,23.7 26.3,25.9 26.8,29 	"/>
	<polygon class="st200" points="24,27.5 21.2,28.9 21.8,25.9 19.6,23.7 22.6,23.2 24,20.5 25.4,23.2 28.4,23.7 26.2,25.9 26.8,28.9 
			"/>
	<polygon class="st201" points="24,27.4 21.3,28.9 21.8,25.8 19.6,23.7 22.6,23.3 24,20.5 25.4,23.3 28.4,23.7 26.2,25.8 26.7,28.9 
			"/>
	<polygon class="st202" points="24,27.4 21.3,28.8 21.8,25.8 19.7,23.7 22.7,23.3 24,20.6 25.3,23.3 28.3,23.7 26.2,25.8 26.7,28.8 
			"/>
	<polygon class="st203" points="24,27.4 21.4,28.7 21.9,25.8 19.8,23.8 22.7,23.3 24,20.7 25.3,23.3 28.2,23.8 26.1,25.8 26.6,28.7 
			"/>
	<polygon class="st204" points="24,27.3 21.4,28.7 21.9,25.8 19.8,23.8 22.7,23.4 24,20.7 25.3,23.4 28.2,23.8 26.1,25.8 26.6,28.7 
			"/>
	<polygon class="st205" points="24,27.3 21.5,28.6 22,25.8 19.9,23.8 22.7,23.4 24,20.8 25.3,23.4 28.1,23.8 26,25.8 26.5,28.6 	"/>
	<polygon class="st206" points="24,27.2 21.5,28.5 22,25.8 20,23.8 22.8,23.4 24,20.9 25.2,23.4 28,23.8 26,25.8 26.5,28.5 	"/>
	<polygon class="st207" points="24,27.2 21.6,28.5 22,25.8 20.1,23.8 22.8,23.4 24,21 25.2,23.4 27.9,23.8 26,25.8 26.4,28.5 	"/>
	<polygon class="st208" points="24,27.1 21.6,28.4 22.1,25.7 20.1,23.9 22.8,23.5 24,21 25.2,23.5 27.9,23.9 25.9,25.7 26.4,28.4 	
		"/>
	<polygon class="st209" points="24,27.1 21.6,28.3 22.1,25.7 20.2,23.9 22.8,23.5 24,21.1 25.2,23.5 27.8,23.9 25.9,25.7 26.4,28.3 
			"/>
	<polygon class="st210" points="24,27.1 21.7,28.3 22.1,25.7 20.3,23.9 22.8,23.5 24,21.2 25.2,23.5 27.7,23.9 25.9,25.7 26.3,28.3 
			"/>
	<polygon class="st211" points="24,27 21.7,28.2 22.2,25.7 20.3,23.9 22.9,23.5 24,21.2 25.1,23.5 27.7,23.9 25.8,25.7 26.3,28.2 	
		"/>
	<polygon class="st212" points="24,27 21.8,28.2 22.2,25.7 20.4,23.9 22.9,23.6 24,21.3 25.1,23.6 27.6,23.9 25.8,25.7 26.2,28.2 	
		"/>
	<polygon class="st213" points="24,26.9 21.8,28.1 22.2,25.7 20.5,24 22.9,23.6 24,21.4 25.1,23.6 27.5,24 25.8,25.7 26.2,28.1 	"/>
	<polygon class="st214" points="24,26.9 21.9,28 22.3,25.7 20.6,24 22.9,23.6 24,21.5 25.1,23.6 27.4,24 25.7,25.7 26.1,28 	"/>
	<polygon class="st215" points="24,26.9 21.9,28 22.3,25.6 20.6,24 23,23.7 24,21.5 25,23.7 27.4,24 25.7,25.6 26.1,28 	"/>
	<polygon class="st216" points="24,26.8 22,27.9 22.3,25.6 20.7,24 23,23.7 24,21.6 25,23.7 27.3,24 25.7,25.6 26,27.9 	"/>
	<polygon class="st217" points="24,26.8 22,27.8 22.4,25.6 20.8,24 23,23.7 24,21.7 25,23.7 27.2,24 25.6,25.6 26,27.8 	"/>
	<polygon class="st218" points="24,26.7 22,27.8 22.4,25.6 20.8,24.1 23,23.7 24,21.8 25,23.7 27.2,24.1 25.6,25.6 26,27.8 	"/>
	<polygon class="st219" points="24,26.7 22.1,27.7 22.5,25.6 20.9,24.1 23,23.8 24,21.8 25,23.8 27.1,24.1 25.5,25.6 25.9,27.7 	"/>
	<polygon class="st220" points="24,26.7 22.1,27.6 22.5,25.6 21,24.1 23.1,23.8 24,21.9 24.9,23.8 27,24.1 25.5,25.6 25.9,27.6 	"/>
	<polygon class="st221" points="24,26.6 22.2,27.6 22.5,25.5 21.1,24.1 23.1,23.8 24,22 24.9,23.8 26.9,24.1 25.5,25.5 25.8,27.6 	
		"/>
	<polygon class="st222" points="24,26.6 22.2,27.5 22.6,25.5 21.1,24.1 23.1,23.8 24,22 24.9,23.8 26.9,24.1 25.4,25.5 25.8,27.5 	
		"/>
	<polygon class="st223" points="24,26.5 22.3,27.4 22.6,25.5 21.2,24.2 23.1,23.9 24,22.1 24.9,23.9 26.8,24.2 25.4,25.5 25.7,27.4 
			"/>
	<polygon class="st224" points="24,26.5 22.3,27.4 22.6,25.5 21.3,24.2 23.2,23.9 24,22.2 24.8,23.9 26.7,24.2 25.4,25.5 25.7,27.4 
			"/>
	<polygon class="st225" points="24,26.5 22.4,27.3 22.7,25.5 21.3,24.2 23.2,23.9 24,22.3 24.8,23.9 26.7,24.2 25.3,25.5 25.6,27.3 
			"/>
	<polygon class="st226" points="24,26.4 22.4,27.3 22.7,25.5 21.4,24.2 23.2,24 24,22.3 24.8,24 26.6,24.2 25.3,25.5 25.6,27.3 	"/>
	<polygon class="st227" points="24,26.4 22.4,27.2 22.7,25.5 21.5,24.2 23.2,24 24,22.4 24.8,24 26.5,24.2 25.3,25.5 25.6,27.2 	"/>
	<polygon class="st228" points="24,26.3 22.5,27.1 22.8,25.4 21.6,24.3 23.2,24 24,22.5 24.8,24 26.4,24.3 25.2,25.4 25.5,27.1 	"/>
	<polygon class="st229" points="24,26.3 22.5,27.1 22.8,25.4 21.6,24.3 23.3,24 24,22.5 24.7,24 26.4,24.3 25.2,25.4 25.5,27.1 	"/>
	<polygon class="st230" points="24,26.3 22.6,27 22.8,25.4 21.7,24.3 23.3,24.1 24,22.6 24.7,24.1 26.3,24.3 25.2,25.4 25.4,27 	"/>
	<polygon class="st231" points="24,26.2 22.6,26.9 22.9,25.4 21.8,24.3 23.3,24.1 24,22.7 24.7,24.1 26.2,24.3 25.1,25.4 25.4,26.9 
			"/>
	<polygon class="st232" points="24,26.2 22.7,26.9 22.9,25.4 21.8,24.3 23.3,24.1 24,22.8 24.7,24.1 26.2,24.3 25.1,25.4 25.3,26.9 
			"/>
	<polygon class="st233" points="24,26.1 22.7,26.8 23,25.4 21.9,24.4 23.4,24.1 24,22.8 24.6,24.1 26.1,24.4 25,25.4 25.3,26.8 	"/>
	<polygon class="st234" points="24,26.1 22.8,26.7 23,25.4 22,24.4 23.4,24.2 24,22.9 24.6,24.2 26,24.4 25,25.4 25.2,26.7 	"/>
	<polygon class="st235" points="24,26 22.8,26.7 23,25.3 22.1,24.4 23.4,24.2 24,23 24.6,24.2 25.9,24.4 25,25.3 25.2,26.7 	"/>
	<polygon class="st236" points="24,26 22.8,26.6 23.1,25.3 22.1,24.4 23.4,24.2 24,23 24.6,24.2 25.9,24.4 24.9,25.3 25.2,26.6 	"/>
	<polygon class="st237" points="24,26 22.9,26.6 23.1,25.3 22.2,24.4 23.4,24.2 24,23.1 24.6,24.2 25.8,24.4 24.9,25.3 25.1,26.6 	
		"/>
	<polygon class="st238" points="24,25.9 22.9,26.5 23.1,25.3 22.3,24.5 23.5,24.3 24,23.2 24.5,24.3 25.7,24.5 24.9,25.3 25.1,26.5 
			"/>
	<polygon class="st239" points="24,25.9 23,26.4 23.2,25.3 22.3,24.5 23.5,24.3 24,23.3 24.5,24.3 25.7,24.5 24.8,25.3 25,26.4 	"/>
	<polygon class="st240" points="24,25.8 23,26.4 23.2,25.3 22.4,24.5 23.5,24.3 24,23.3 24.5,24.3 25.6,24.5 24.8,25.3 25,26.4 	"/>
	<polygon class="st241" points="24,25.8 23.1,26.3 23.2,25.3 22.5,24.5 23.5,24.4 24,23.4 24.5,24.4 25.5,24.5 24.8,25.3 24.9,26.3 
			"/>
	<polygon class="st242" points="24,25.8 23.1,26.2 23.3,25.2 22.6,24.5 23.6,24.4 24,23.5 24.4,24.4 25.4,24.5 24.7,25.2 24.9,26.2 
			"/>
	<polygon class="st243" points="24,25.7 23.2,26.2 23.3,25.2 22.6,24.6 23.6,24.4 24,23.6 24.4,24.4 25.4,24.6 24.7,25.2 24.8,26.2 
			"/>
	<polygon class="st244" points="24,25.7 23.2,26.1 23.3,25.2 22.7,24.6 23.6,24.4 24,23.6 24.4,24.4 25.3,24.6 24.7,25.2 24.8,26.1 
			"/>
	<polygon class="st245" points="24,25.6 23.2,26 23.4,25.2 22.8,24.6 23.6,24.5 24,23.7 24.4,24.5 25.2,24.6 24.6,25.2 24.8,26 	"/>
	<polygon class="st246" points="24,25.6 23.3,26 23.4,25.2 22.8,24.6 23.6,24.5 24,23.8 24.4,24.5 25.2,24.6 24.6,25.2 24.7,26 	"/>
	<polygon class="st247" points="24,25.6 23.3,25.9 23.5,25.2 22.9,24.6 23.7,24.5 24,23.8 24.3,24.5 25.1,24.6 24.5,25.2 24.7,25.9 
			"/>
	<polygon class="st248" points="24,25.5 23.4,25.8 23.5,25.1 23,24.7 23.7,24.5 24,23.9 24.3,24.5 25,24.7 24.5,25.1 24.6,25.8 	"/>
	<polygon class="st249" points="24,25.5 23.4,25.8 23.5,25.1 23.1,24.7 23.7,24.6 24,24 24.3,24.6 24.9,24.7 24.5,25.1 24.6,25.8 	
		"/>
	<polygon class="st250" points="24,25.4 23.5,25.7 23.6,25.1 23.1,24.7 23.7,24.6 24,24.1 24.3,24.6 24.9,24.7 24.4,25.1 24.5,25.7 
			"/>
	<polygon class="st251" points="24,25.4 23.5,25.7 23.6,25.1 23.2,24.7 23.8,24.6 24,24.1 24.2,24.6 24.8,24.7 24.4,25.1 24.5,25.7 
			"/>
	<polygon class="st252" points="24,25.4 23.5,25.6 23.6,25.1 23.3,24.7 23.8,24.7 24,24.2 24.2,24.7 24.7,24.7 24.4,25.1 24.5,25.6 
			"/>
	<polygon class="st253" points="24,25.3 23.6,25.5 23.7,25.1 23.3,24.7 23.8,24.7 24,24.3 24.2,24.7 24.7,24.7 24.3,25.1 24.4,25.5 
			"/>
	<polygon class="st254" points="24,25.3 23.6,25.5 23.7,25.1 23.4,24.8 23.8,24.7 24,24.3 24.2,24.7 24.6,24.8 24.3,25.1 24.4,25.5 
			"/>
</g>
</svg>
